<svg xmlns="http://www.w3.org/2000/svg" version="1.1" xmlns:xlink="http://www.w3.org/1999/xlink" width="68" height="68"><svg width="68" height="68" viewBox="0 0 68 68" fill="none" xmlns="http://www.w3.org/2000/svg">
<path d="M32.9463 13.7876C36.3188 10.5394 41.8339 11.3138 44.187 15.3658L44.306 15.5707C45.5256 17.6707 47.7664 18.9625 50.1899 18.9625C54.3789 18.9625 57.5744 22.7195 56.9132 26.8674L56.5925 28.8793C56.0328 32.3905 53.0558 35.0025 49.5107 35.0926C43.8163 35.2373 40.4369 41.5347 43.4538 46.3798L43.5553 46.5428C45.1939 49.1744 45.045 52.5465 43.181 55.0226L41.9729 56.6274C38.6686 61.0167 31.8897 60.2864 29.5908 55.2934C28.3681 52.6377 25.6786 50.9742 22.7631 51.0702L19.6708 51.1721C12.7898 51.3988 9.38031 42.8845 14.5069 38.2766C16.7511 36.2595 17.5452 33.0759 16.5123 30.2369L16.4249 29.9967C14.73 25.3378 17.7612 20.3005 22.6617 19.6322L24.5696 19.3721C26.5216 19.1059 28.3389 18.2251 29.7597 16.8568L32.9463 13.7876Z" fill="#C7F2C2"></path>
<path d="M31.9186 10.9899C35.2928 7.7888 40.8107 8.55191 43.165 12.5452L43.2841 12.7472C44.5042 14.8168 46.7461 16.0898 49.1708 16.0898C53.362 16.0898 56.5591 19.7924 55.8975 23.8801L55.5767 25.8628C55.0167 29.3232 52.0382 31.8973 48.4914 31.9861C42.7941 32.1288 39.4131 38.3349 42.4314 43.1097L42.5329 43.2704C44.1724 45.8638 44.0234 49.1871 42.1584 51.6273L40.9497 53.2089C37.6438 57.5346 30.8616 56.8148 28.5615 51.8941C27.3382 49.277 24.6473 47.6375 21.7304 47.7322L18.6365 47.8326C11.752 48.056 8.34089 39.6651 13.4701 35.124C15.7153 33.1361 16.5098 29.9987 15.4765 27.2008L15.389 26.964C13.6932 22.3727 16.726 17.4084 21.629 16.7498L23.5378 16.4934C25.4908 16.2311 27.309 15.3631 28.7305 14.0146L31.9186 10.9899Z" fill="#58D748"></path>
<path d="M40.6098 26.4077C40.7873 27.6384 40.4073 28.7099 39.7611 28.8008C39.1149 28.8917 38.4472 27.9676 38.2697 26.7369C38.0922 25.5061 38.4722 24.4347 39.1184 24.3438C39.7646 24.2529 40.4323 25.1769 40.6098 26.4077Z" fill="white"></path>
<path d="M40.6098 26.4077C40.7873 27.6384 40.4073 28.7099 39.7611 28.8008C39.1149 28.8917 38.4472 27.9676 38.2697 26.7369C38.0922 25.5061 38.4722 24.4347 39.1184 24.3438C39.7646 24.2529 40.4323 25.1769 40.6098 26.4077Z" fill="white"></path>
<path d="M34.8693 28.7196C36.1403 29.9571 36.6439 31.488 35.9942 32.139C35.3445 32.7901 33.7874 32.3147 32.5164 31.0772C31.2454 29.8398 30.7418 28.3089 31.3915 27.6578C32.0412 27.0068 33.5983 27.4822 34.8693 28.7196Z" fill="white"></path>
<path d="M34.8693 28.7196C36.1403 29.9571 36.6439 31.488 35.9942 32.139C35.3445 32.7901 33.7874 32.3147 32.5164 31.0772C31.2454 29.8398 30.7418 28.3089 31.3915 27.6578C32.0412 27.0068 33.5983 27.4822 34.8693 28.7196Z" fill="white"></path>
<path d="M32.4577 36.8511C33.6958 36.4919 34.8523 36.7147 35.041 37.3489C35.2296 37.9831 34.3789 38.7884 33.1408 39.1477C31.9027 39.5069 30.7461 39.2841 30.5575 38.6499C30.3688 38.0157 31.2196 37.2104 32.4577 36.8511Z" fill="white"></path>
<path d="M32.4577 36.8511C33.6958 36.4919 34.8523 36.7147 35.041 37.3489C35.2296 37.9831 34.3789 38.7884 33.1408 39.1477C31.9027 39.5069 30.7461 39.2841 30.5575 38.6499C30.3688 38.0157 31.2196 37.2104 32.4577 36.8511Z" fill="white"></path>
</svg><style>@media (prefers-color-scheme: light) { :root { filter: none; } }
@media (prefers-color-scheme: dark) { :root { filter: none; } }
</style></svg>