<svg width="40" height="40" viewBox="0 0 40 40" fill="none" xmlns="http://www.w3.org/2000/svg">
<circle cx="20" cy="20" r="20" fill="#1A1A1A"/>
<path d="M18.8775 30.1602C18.8775 30.7801 19.3801 31.2827 20 31.2827C20.6199 31.2827 21.1225 30.7801 21.1225 30.1602H20H18.8775ZM20.7937 9.20643C20.3554 8.76807 19.6446 8.76807 19.2063 9.20643L12.0627 16.35C11.6244 16.7883 11.6244 17.499 12.0627 17.9374C12.5011 18.3758 13.2118 18.3758 13.6502 17.9374L20 11.5876L26.3498 17.9374C26.7882 18.3758 27.4989 18.3758 27.9373 17.9374C28.3756 17.499 28.3756 16.7883 27.9373 16.35L20.7937 9.20643ZM20 30.1602H21.1225L21.1225 10.0002H20H18.8775L18.8775 30.1602H20Z" fill="white"/>
</svg>
