<svg width="24" height="24" viewBox="0 0 24 24" fill="none" xmlns="http://www.w3.org/2000/svg">
<path d="M19.2333 2.96896L19.2158 2.96312L16.9533 2.21299C16.1718 1.9535 15.3311 1.93059 14.5367 2.14715L9.89 3.49655C9.32105 3.64735 8.71726 3.59428 8.18333 3.34652L7.76667 3.15315C7.13383 2.88992 6.44583 2.78689 5.76366 2.85319C5.08149 2.91949 4.4262 3.15308 3.85588 3.53326C3.28555 3.91343 2.8178 4.42844 2.49407 5.03266C2.17034 5.63688 2.00064 6.31164 2 6.99714L2 17.0614C2.00175 17.9626 2.29483 18.8391 2.83549 19.5602C3.37616 20.2812 4.13543 20.808 5 21.062L7.39083 21.8122C7.79418 21.9376 8.21428 22.0008 8.63667 21.9997C9.01318 22.0045 9.38833 21.9536 9.75 21.8488L14.5833 20.5153C15.025 20.3955 15.4911 20.3992 15.9308 20.5261L17.8833 21.0895C18.3735 21.2081 18.8842 21.2138 19.3769 21.1063C19.8696 20.9989 20.3316 20.781 20.7279 20.4691C21.1242 20.1572 21.4446 19.7594 21.665 19.3057C21.8853 18.852 21.9999 18.3542 22 17.8498V6.89379C21.9987 6.03434 21.7324 5.19622 21.2372 4.4938C20.7421 3.79137 20.0423 3.25887 19.2333 2.96896ZM5.48 19.4651C4.95859 19.3143 4.50008 18.9986 4.17316 18.5652C3.84625 18.1319 3.66854 17.6042 3.66667 17.0614V6.99714C3.66262 6.5843 3.76246 6.17708 3.95702 5.81296C4.15157 5.44883 4.43459 5.13951 4.78 4.91345C5.191 4.64078 5.67346 4.49578 6.16667 4.49672C6.48472 4.4968 6.79963 4.55968 7.09333 4.68175C7.09333 4.68175 7.71417 4.94763 7.8325 4.99013V20.2011L5.48 19.4651ZM9.5 20.1886V5.22934C9.78305 5.21432 10.0639 5.17104 10.3383 5.10015L14.5 3.89078V18.8325L9.5 20.1886ZM20.3333 17.8498C20.3335 18.0995 20.2776 18.346 20.1698 18.5712C20.0619 18.7963 19.9049 18.9944 19.7103 19.1507C19.5157 19.307 19.2884 19.4176 19.0453 19.4744C18.8023 19.5311 18.5495 19.5325 18.3058 19.4784L16.1667 18.8758V3.72575L18.6817 4.54172C19.165 4.71688 19.5828 5.03654 19.8783 5.45732C20.1737 5.87809 20.3326 6.3796 20.3333 6.89379V17.8498Z" fill="#58D748"/>
</svg>
