<svg width="24" height="24" viewBox="0 0 24 24" fill="none" xmlns="http://www.w3.org/2000/svg">
<path fill-rule="evenodd" clip-rule="evenodd" d="M3.80674 6.20635C4.70687 5.30649 5.92755 4.80097 7.20034 4.80097C8.47313 4.80097 9.69381 5.30649 10.5939 6.20635L12.0003 7.61155L13.4067 6.20635C13.8495 5.7479 14.3792 5.38223 14.9648 5.13066C15.5504 4.8791 16.1803 4.74669 16.8176 4.74115C17.455 4.73561 18.087 4.85706 18.6769 5.09841C19.2668 5.33975 19.8028 5.69617 20.2534 6.14685C20.7041 6.59754 21.0605 7.13347 21.3019 7.72337C21.5432 8.31327 21.6647 8.94533 21.6591 9.58268C21.6536 10.22 21.5212 10.8499 21.2696 11.4355C21.0181 12.0211 20.6524 12.5508 20.1939 12.9935L12.0003 21.1883L3.80674 12.9935C2.90688 12.0934 2.40137 10.8727 2.40137 9.59995C2.40137 8.32716 2.90688 7.10648 3.80674 6.20635Z" fill="#E42938" stroke="#E42938" stroke-width="2" stroke-linejoin="round"/>
</svg>
