<svg width="23" height="23" viewBox="0 0 23 23" fill="none" xmlns="http://www.w3.org/2000/svg">
<g clip-path="url(#clip0_1765_1516)">
<path d="M23.6596 9.96008C23.6596 10.1701 23.5156 10.3501 23.3116 10.3981L20.1856 11.1001C19.4176 11.2681 18.7996 12.0601 18.6556 13.0561L18.0976 16.9501C18.0616 17.1721 17.8756 17.3341 17.6476 17.3341C17.4256 17.3341 17.2336 17.1721 17.2036 16.9501L16.6396 13.0561C16.4956 12.0601 15.8836 11.2681 15.1156 11.1001L11.9896 10.3981C11.7856 10.3501 11.6416 10.1701 11.6416 9.96008C11.6416 9.75008 11.7856 9.56408 11.9896 9.51608L15.1156 8.82008C15.8836 8.64608 16.4956 7.86008 16.6396 6.85808L17.2036 2.96408C17.2336 2.74208 17.4256 2.58008 17.6476 2.58008C17.8756 2.58008 18.0616 2.74208 18.0976 2.96408L18.6556 6.85808C18.7276 7.36208 18.9196 7.80608 19.1836 8.14808C19.4536 8.49008 19.8016 8.73008 20.1856 8.82008L23.3116 9.51608C23.5156 9.56408 23.6596 9.75008 23.6596 9.96008Z" fill="#FFCD00"/>
<path d="M13.9162 17.1779C13.9162 17.3879 13.7722 17.5679 13.5622 17.6159L11.3782 18.1019C10.8982 18.2159 10.5082 18.7199 10.4122 19.3619L10.0222 22.0859C9.99223 22.3079 9.80023 22.4699 9.57823 22.4699C9.35023 22.4699 9.16423 22.3079 9.13423 22.0859L8.73823 19.3619C8.64223 18.7199 8.25823 18.2159 7.77223 18.1019L5.58823 17.6159C5.38423 17.5679 5.24023 17.3879 5.24023 17.1779C5.24023 16.9679 5.38423 16.7819 5.58823 16.7339L7.77223 16.2479C8.25823 16.1399 8.64223 15.6299 8.73823 14.9879L9.13423 12.2639C9.16423 12.0419 9.35023 11.8799 9.57823 11.8799C9.80023 11.8799 9.99223 12.0419 10.0222 12.2639L10.4122 14.9879C10.5082 15.6299 10.8982 16.1399 11.3782 16.2479L13.5622 16.7339C13.7722 16.7819 13.9162 16.9679 13.9162 17.1779Z" fill="#FFCD00"/>
<path d="M9.49993 7.06819C9.49993 7.27819 9.35593 7.45819 9.15193 7.50619L7.40593 7.89619C7.05193 7.97419 6.76993 8.35219 6.70393 8.83219L6.38593 11.0102C6.35593 11.2262 6.16393 11.3942 5.94193 11.3942C5.71993 11.3942 5.52793 11.2262 5.49793 11.0102L5.17993 8.83219C5.11393 8.35219 4.83193 7.97419 4.47793 7.89619L2.73193 7.50619C2.52793 7.45819 2.37793 7.27819 2.37793 7.06819C2.37793 6.85819 2.52793 6.67219 2.73193 6.63019L4.47793 6.23419C4.83193 6.15619 5.11393 5.78419 5.17993 5.30419L5.49793 3.12619C5.52793 2.90419 5.71993 2.74219 5.94193 2.74219C6.16393 2.74219 6.35593 2.90419 6.38593 3.12619L6.70393 5.30419C6.76993 5.78419 7.05193 6.15619 7.40593 6.23419L9.15193 6.63019C9.35593 6.67219 9.49993 6.85819 9.49993 7.06819Z" fill="#FFCD00"/>
</g>
<defs>
<clipPath id="clip0_1765_1516">
<rect width="22.2715" height="22.2715" fill="white" transform="translate(0.631836 0.0180664)"/>
</clipPath>
</defs>
</svg>
