<svg width="23" height="24" viewBox="0 0 23 24" fill="none" xmlns="http://www.w3.org/2000/svg">
<g clip-path="url(#clip0_669_11828)">
<path d="M21.4301 10.2926C21.2633 5.66243 17.4653 1.91843 12.8333 1.81523C7.8797 1.70483 3.8291 5.68763 3.8291 10.6166C3.8291 12.1088 4.2017 13.514 4.8569 14.7452L4.8533 14.7428C4.8629 14.7602 4.8719 14.7758 4.8815 14.7926C4.9061 14.8382 4.9325 14.8826 4.9583 14.9282C4.9847 14.975 5.0117 15.0218 5.0381 15.0668C5.0807 15.14 5.1245 15.212 5.1695 15.2834C5.1953 15.3242 5.2205 15.3632 5.2463 15.4028C5.2793 15.4538 5.3117 15.5054 5.3453 15.5558C6.5921 17.4122 7.6523 17.5454 8.0279 18.962H11.8379V14.7248L9.8045 12.6914C9.4757 12.3626 9.4757 11.8298 9.8045 11.501C10.1333 11.1722 10.6661 11.1722 10.9949 11.501L12.6455 13.1516L14.2697 11.5274C14.5985 11.1986 15.1313 11.1986 15.4601 11.5274C15.7889 11.8562 15.7889 12.389 15.4601 12.7178L13.4267 14.7512V18.9614H17.2367C17.6135 17.5394 18.6797 17.4104 19.9319 15.5378C19.9331 15.5366 19.9337 15.5348 19.9349 15.5336C19.9949 15.4442 20.0549 15.35 20.1155 15.2522C20.1467 15.2018 20.1773 15.1514 20.2073 15.1004C20.2757 14.9858 20.3441 14.8682 20.4125 14.7422L20.4071 14.7452C21.1097 13.4246 21.4877 11.9048 21.4295 10.292L21.4301 10.2926Z" fill="#FFC33A"/>
<path d="M13.4264 18.9626V14.7524L15.4598 12.719C15.7886 12.3902 15.7886 11.8574 15.4598 11.5286C15.131 11.1998 14.5982 11.1998 14.2694 11.5286L12.6452 13.1528L10.9946 11.5022C10.6658 11.1734 10.133 11.1734 9.80422 11.5022C9.47542 11.831 9.47542 12.3638 9.80422 12.6926L11.8376 14.726V18.9632H13.427L13.4264 18.9626Z" fill="#FF9000"/>
<path d="M8.04492 18.9625C8.04912 19.0573 8.05212 19.1557 8.05332 19.2589V20.9863C8.05332 22.6573 9.52812 24.0121 11.1997 24.0121H14.0653C15.7363 24.0121 17.2297 22.6573 17.2297 20.9863V19.3255C17.2297 19.1971 17.2333 19.0777 17.2387 18.9619H8.04552L8.04492 18.9625Z" fill="#7D8996"/>
<path d="M17.3408 19.0977H7.94238V20.8977H17.3408V19.0977Z" fill="#4B596A"/>
</g>
<defs>
<clipPath id="clip0_669_11828">
<rect width="22.2715" height="22.2715" fill="white" transform="translate(0.631836 0.912842)"/>
</clipPath>
</defs>
</svg>
