<svg width="23" height="24" viewBox="0 0 23 24" fill="none" xmlns="http://www.w3.org/2000/svg">
<g clip-path="url(#clip0_669_11816)">
<path d="M20.7842 2.85889H4.47865C3.51369 2.85889 2.73145 3.64113 2.73145 4.60609V20.9117C2.73145 21.8766 3.51369 22.6589 4.47865 22.6589H20.7842C21.7492 22.6589 22.5314 21.8766 22.5314 20.9117V4.60609C22.5314 3.64113 21.7492 2.85889 20.7842 2.85889Z" fill="#8595AA"/>
<path d="M14.4792 6.49808H10.7844C10.3824 6.49808 10.0566 6.17228 10.0566 5.77028C10.0566 5.36828 10.3824 5.04248 10.7844 5.04248H14.4792C14.8812 5.04248 15.207 5.36828 15.207 5.77028C15.207 6.17228 14.8812 6.49808 14.4792 6.49808Z" fill="#495B73"/>
<path d="M22.5314 11.6814H2.73145V12.846H22.5314V11.6814Z" fill="#65778E"/>
<path d="M14.4792 16.4861H10.7844C10.3824 16.4861 10.0566 16.1603 10.0566 15.7583C10.0566 15.3563 10.3824 15.0305 10.7844 15.0305H14.4792C14.8812 15.0305 15.207 15.3563 15.207 15.7583C15.207 16.1603 14.8812 16.4861 14.4792 16.4861Z" fill="#495B73"/>
</g>
<defs>
<clipPath id="clip0_669_11816">
<rect width="22.2715" height="22.2715" fill="white" transform="translate(0.631836 0.759033)"/>
</clipPath>
</defs>
</svg>
