<svg width="23" height="23" viewBox="0 0 23 23" fill="none" xmlns="http://www.w3.org/2000/svg">
<g clip-path="url(#clip0_1765_880)">
<path d="M17.7314 2.38379H7.53145C4.88048 2.38379 2.73145 4.53282 2.73145 7.18379V17.3838C2.73145 20.0348 4.88048 22.1838 7.53145 22.1838H17.7314C20.3824 22.1838 22.5314 20.0348 22.5314 17.3838V7.18379C22.5314 4.53282 20.3824 2.38379 17.7314 2.38379Z" fill="#E5E8EB"/>
<path d="M11.4941 16.6099C11.2175 16.6099 10.9415 16.5049 10.7303 16.2937L7.1435 12.7069C6.7217 12.2851 6.7217 11.6011 7.1435 11.1793C7.5653 10.7581 8.2493 10.7581 8.6711 11.1793L11.4941 14.0029L16.5935 8.90353C17.0159 8.48233 17.6993 8.48173 18.1211 8.90353C18.5429 9.32533 18.5429 10.0093 18.1211 10.4311L12.2579 16.2937C12.0467 16.5043 11.7707 16.6099 11.4941 16.6099Z" fill="#313D4C"/>
</g>
<defs>
<clipPath id="clip0_1765_880">
<rect width="22.2715" height="22.2715" fill="white" transform="translate(0.631836 0.283936)"/>
</clipPath>
</defs>
</svg>
