<svg width="14" height="14" viewBox="0 0 14 14" fill="none" xmlns="http://www.w3.org/2000/svg">
<g clip-path="url(#clip0_1373_22501)">
<path d="M10.2999 1.08647L9.69798 7.17459H8.69671L8.15425 3.85475C8.01811 2.55881 8.75795 1.33005 9.96676 0.843591C10.1333 0.776396 10.3129 0.907286 10.2999 1.08647Z" fill="#D5D5D5"/>
<path d="M4.64329 7.17432L4.23943 12.5348C4.23138 12.8848 4.51275 13.1732 4.86308 13.1732H5.42373C5.77406 13.1732 6.05543 12.8852 6.04738 12.5348L5.64457 7.17432H4.64329Z" fill="#767676"/>
<path d="M8.69701 7.17432L8.29314 12.5348C8.28509 12.8848 8.56647 13.1732 8.91679 13.1732H9.47744C9.82777 13.1732 10.1091 12.8852 10.1011 12.5348L9.69828 7.17432H8.69701Z" fill="#767676"/>
<path d="M5.62577 6.90926C5.62857 6.53198 5.9236 6.42629 5.9236 6.42629L5.92185 6.42454C5.9341 6.41859 5.9474 6.41544 5.95965 6.40914L6.69739 6.14737C7.10091 5.94123 7.34624 5.42852 7.29409 4.90076L6.77368 1.12281C6.75024 0.952724 6.60465 0.825684 6.43281 0.825684C6.24103 0.825684 6.08634 0.982471 6.08879 1.17391L6.12938 4.4311C6.12938 4.55219 6.07024 4.66103 5.9782 4.70793C5.91695 4.73943 5.84696 4.73943 5.78606 4.70793C5.69437 4.66103 5.63487 4.55254 5.63487 4.4311L5.57958 1.16376C5.57643 0.976172 5.42349 0.825684 5.23555 0.825684H5.04937C4.86178 0.825684 4.7085 0.976172 4.70535 1.16376L4.65005 4.4311C4.65005 4.55219 4.59091 4.66103 4.49851 4.70793C4.43797 4.73943 4.36762 4.73943 4.30638 4.70793C4.21469 4.66103 4.15519 4.55254 4.15519 4.4311L4.19614 1.17391C4.19859 0.982121 4.0439 0.825684 3.85211 0.825684C3.68028 0.825684 3.53469 0.952374 3.51124 1.12281L2.99083 4.90076C2.93869 5.42852 3.18437 5.94088 3.58753 6.14737L4.32528 6.40914C4.33718 6.41509 4.34977 6.41824 4.36202 6.42384L4.35992 6.42594C4.35992 6.42594 4.6686 6.53408 4.65915 6.9299L4.642 7.17418H5.64327L5.62472 6.90891L5.62577 6.90926Z" fill="#D5D5D5"/>
</g>
<defs>
<clipPath id="clip0_1373_22501">
<rect width="13.596" height="13.596" fill="white" transform="translate(-0.00683594)"/>
</clipPath>
</defs>
</svg>
