<svg width="24" height="25" viewBox="0 0 24 25" fill="none" xmlns="http://www.w3.org/2000/svg">
<g clip-path="url(#clip0_1070_17451)">
<path d="M17.2574 2.93539C17.0234 3.17419 16.811 3.71059 16.6262 4.36159C16.4948 4.82479 16.1294 5.15059 15.6488 5.24419L15.593 5.25499L15.5864 5.25619L12.893 2.61379C12.0932 1.82899 10.8566 1.79179 10.1312 2.53099L7.68023 5.02879L7.66583 5.04319C7.75943 5.43559 7.99763 5.76799 8.32583 5.97979C8.42963 6.04939 8.54243 6.10639 8.66303 6.14899C9.33203 6.38539 9.88764 6.64039 10.1456 6.89419C11.0786 7.80978 10.9874 9.41479 9.94343 10.481C8.89703 11.5454 7.29383 11.6666 6.36083 10.7516C6.10223 10.4984 5.83703 9.94759 5.58743 9.28339C5.54243 9.16339 5.48303 9.05178 5.41163 8.94919C5.19323 8.62459 4.85663 8.39299 4.46243 8.30719L4.44803 8.32159L1.99703 10.8194C1.27163 11.5586 1.33223 12.7946 2.13203 13.5794L4.82543 16.2218L4.82423 16.2284L4.81463 16.2842C4.73063 16.7672 4.41203 17.138 3.95123 17.2784C3.30383 17.4752 2.77103 17.6978 2.53703 17.9366C1.69043 18.7994 1.94003 20.4164 3.09383 21.548C4.24763 22.6802 5.86883 22.8986 6.71543 22.0358C6.95243 21.7946 7.16663 21.2486 7.35263 20.588C7.48643 20.1128 7.86443 19.7828 8.36003 19.697C8.36183 19.697 8.36423 19.6958 8.36603 19.6958L11.1062 22.3844C11.906 23.1692 13.1426 23.2064 13.868 22.4672L16.2908 19.9982C16.1678 19.4906 15.8042 19.082 15.3134 18.9098C14.6348 18.671 14.0696 18.413 13.8086 18.1568C12.875 17.2412 12.9668 15.6344 14.0126 14.5676C15.0584 13.5008 16.6634 13.3796 17.597 14.2952C17.8556 14.5484 18.1208 15.0992 18.3704 15.7634C18.548 16.2362 18.9458 16.5848 19.4378 16.7066L19.5038 16.7228L22.0022 14.1764C22.7276 13.4372 22.667 12.2012 21.8672 11.4164L19.127 8.72779C19.127 8.72779 19.1282 8.72359 19.1282 8.72179C19.2044 8.22439 19.5272 7.84039 20 7.69759C20.657 7.49899 21.1988 7.27398 21.4352 7.03278C22.2818 6.16999 22.0322 4.55299 20.8784 3.42139C19.7246 2.28919 18.1034 2.07079 17.2568 2.93359L17.2574 2.93539Z" fill="#3E5AF4"/>
</g>
<defs>
<clipPath id="clip0_1070_17451">
<rect width="24" height="24" fill="white" transform="translate(0 0.5)"/>
</clipPath>
</defs>
</svg>
