<svg width="16" height="16" viewBox="0 0 16 16" fill="none" xmlns="http://www.w3.org/2000/svg">
<g clip-path="url(#clip0_1373_22515)">
<path d="M7.80666 14.0288C10.8809 14.0288 13.3731 11.5367 13.3731 8.46242C13.3731 5.38817 10.8809 2.896 7.80666 2.896C4.73241 2.896 2.24023 5.38817 2.24023 8.46242C2.24023 11.5367 4.73241 14.0288 7.80666 14.0288Z" fill="#E5E8EB"/>
<path d="M7.80656 14.6307C4.40538 14.6307 1.63818 11.8639 1.63818 8.46233C1.63818 5.06075 4.40499 2.29395 7.80656 2.29395C11.2081 2.29395 13.9749 5.06075 13.9749 8.46233C13.9749 11.8639 11.2081 14.6307 7.80656 14.6307ZM7.80656 3.49786C5.06905 3.49786 2.84209 5.72521 2.84209 8.46233C2.84209 11.1994 5.06944 13.4268 7.80656 13.4268C10.5437 13.4268 12.771 11.1994 12.771 8.46233C12.771 5.72521 10.5437 3.49786 7.80656 3.49786Z" fill="#EF4452"/>
<path d="M13.1794 4.08388C13.5243 4.32529 14.0177 4.15771 14.1239 3.75028C14.3642 2.82997 14.0255 1.81668 13.2005 1.23934C12.3755 0.661602 11.3079 0.689728 10.5251 1.23035C10.1786 1.46981 10.1896 1.99051 10.5349 2.23231L13.1794 4.08388Z" fill="#EF4452"/>
<path d="M2.43177 4.08388C2.08685 4.32529 1.59349 4.15771 1.48724 3.75028C1.247 2.82997 1.58568 1.81668 2.41068 1.23934C3.23568 0.661602 4.30326 0.689728 5.08608 1.23035C5.43256 1.46981 5.42163 1.99051 5.07631 2.23231L2.43177 4.08388Z" fill="#EF4452"/>
<path d="M7.80509 9.06426H5.5082C5.17578 9.06426 4.90625 8.79473 4.90625 8.46231C4.90625 8.12988 5.17578 7.86035 5.5082 7.86035H7.80509C8.13751 7.86035 8.40704 8.12988 8.40704 8.46231C8.40704 8.79473 8.13751 9.06426 7.80509 9.06426Z" fill="#EF4452"/>
<path d="M7.80557 9.06427C7.47315 9.06427 7.20361 8.79474 7.20361 8.46232V5.16934C7.20361 4.83691 7.47315 4.56738 7.80557 4.56738C8.13799 4.56738 8.40752 4.83691 8.40752 5.16934V8.46232C8.40752 8.79474 8.13799 9.06427 7.80557 9.06427Z" fill="#313D4C"/>
</g>
<defs>
<clipPath id="clip0_1373_22515">
<rect width="15.5547" height="15.5547" fill="white" transform="translate(-0.00683594)"/>
</clipPath>
</defs>
</svg>
