<svg width="47" height="69" viewBox="0 0 47 69" fill="none" xmlns="http://www.w3.org/2000/svg">
<path d="M23.2002 1.28027C35.3946 1.28029 45.2803 11.1659 45.2803 23.3604C45.2803 28.8275 42.6673 35.6247 38.9033 42.7764C35.1554 49.8975 30.3501 57.2197 26.1084 63.7168C25.11 65.2454 22.9175 65.3302 21.8281 63.9004C16.8832 57.4099 11.6894 50.0484 7.73535 42.8926C3.76366 35.7047 1.12013 28.8578 1.12012 23.3604C1.12012 11.1659 11.0057 1.28027 23.2002 1.28027Z" fill="#58D848" stroke="#38B628" stroke-width="1.92"/>
<path d="M23.6743 11.1048C25.6683 9.25561 28.8579 9.70567 30.2624 12.0344L30.3346 12.154C31.0659 13.3667 32.3787 14.108 33.7949 14.108C36.2901 14.108 38.1891 16.3472 37.7815 18.809L37.6336 19.7022C37.2958 21.7425 35.556 23.255 33.4886 23.3056L33.3187 23.3097C30.0276 23.3903 28.0962 27.045 29.8839 29.8094C30.859 31.3173 30.7712 33.2776 29.6652 34.6922L28.9133 35.6539C26.9473 38.1685 23.0236 37.7401 21.6466 34.8605C20.9109 33.322 19.3356 32.3636 17.6311 32.4177L15.5608 32.4834C11.6187 32.6084 9.70521 27.7121 12.6875 25.1311C14.0151 23.982 14.485 22.1268 13.8645 20.4843L13.8229 20.3744C12.8304 17.7474 14.5464 14.8814 17.3308 14.5158L18.7106 14.3346C19.8331 14.1872 20.8819 13.6945 21.7119 12.9248L23.6743 11.1048Z" fill="white"/>
<path d="M28.764 20.0791C28.8691 20.7913 28.6442 21.4113 28.2616 21.4639C27.8791 21.5165 27.4838 20.9818 27.3787 20.2696C27.2736 19.5574 27.4986 18.9373 27.8811 18.8847C28.2637 18.8321 28.659 19.3668 28.764 20.0791Z" fill="#61D44A"/>
<path d="M28.764 20.0791C28.8691 20.7913 28.6442 21.4113 28.2616 21.4639C27.8791 21.5165 27.4838 20.9818 27.3787 20.2696C27.2736 19.5574 27.4986 18.9373 27.8811 18.8847C28.2637 18.8321 28.659 19.3668 28.764 20.0791Z" fill="#61D44A"/>
<path d="M25.3646 21.4167C26.117 22.1328 26.4152 23.0187 26.0305 23.3954C25.6459 23.7722 24.7242 23.4971 23.9717 22.781C23.2193 22.0649 22.9212 21.179 23.3058 20.8022C23.6904 20.4255 24.6122 20.7006 25.3646 21.4167Z" fill="#61D44A"/>
<path d="M25.3646 21.4167C26.117 22.1328 26.4152 23.0187 26.0305 23.3954C25.6459 23.7722 24.7242 23.4971 23.9717 22.781C23.2193 22.0649 22.9212 21.179 23.3058 20.8022C23.6904 20.4255 24.6122 20.7006 25.3646 21.4167Z" fill="#61D44A"/>
<path d="M23.9374 26.1222C24.6703 25.9143 25.355 26.0433 25.4666 26.4103C25.5783 26.7773 25.0747 27.2433 24.3417 27.4512C23.6088 27.6591 22.9241 27.5301 22.8125 27.1631C22.7008 26.7962 23.2044 26.3301 23.9374 26.1222Z" fill="#61D44A"/>
<path d="M23.9374 26.1222C24.6703 25.9143 25.355 26.0433 25.4666 26.4103C25.5783 26.7773 25.0747 27.2433 24.3417 27.4512C23.6088 27.6591 22.9241 27.5301 22.8125 27.1631C22.7008 26.7962 23.2044 26.3301 23.9374 26.1222Z" fill="#61D44A"/>
</svg>
