<svg width="30" height="30" viewBox="0 0 30 30" fill="none" xmlns="http://www.w3.org/2000/svg">
<path d="M14.52 8.47C11.184 8.47 8.47 11.184 8.47 14.52C8.47 17.856 11.184 20.57 14.52 20.57C17.856 20.57 20.57 17.856 20.57 14.52C20.57 11.184 17.856 8.47 14.52 8.47ZM14.52 18.15C12.5187 18.15 10.89 16.5213 10.89 14.52C10.89 12.5187 12.5187 10.89 14.52 10.89C16.5213 10.89 18.15 12.5187 18.15 14.52C18.15 16.5213 16.5213 18.15 14.52 18.15ZM27.83 13.31H26.5595C25.9896 7.60243 21.4376 3.0492 15.73 2.4805V1.21C15.73 0.54087 15.1879 0 14.52 0C13.8521 0 13.31 0.54087 13.31 1.21V2.4805C7.60243 3.0492 3.0492 7.60243 2.4805 13.31H1.21C0.54208 13.31 0 13.8509 0 14.52C0 15.1891 0.54208 15.73 1.21 15.73H2.4805C3.05041 21.4376 7.60243 25.9908 13.31 26.5595V27.83C13.31 28.4991 13.8521 29.04 14.52 29.04C15.1879 29.04 15.73 28.4991 15.73 27.83V26.5595C21.4376 25.9896 25.9908 21.4376 26.5595 15.73H27.83C28.4979 15.73 29.04 15.1891 29.04 14.52C29.04 13.8509 28.4979 13.31 27.83 13.31ZM14.52 24.2C9.18269 24.2 4.84 19.8573 4.84 14.52C4.84 9.18269 9.18269 4.84 14.52 4.84C19.8573 4.84 24.2 9.18269 24.2 14.52C24.2 19.8573 19.8573 24.2 14.52 24.2Z" fill="black"/>
</svg>
