<svg width="40" height="40" viewBox="0 0 40 40" fill="none" xmlns="http://www.w3.org/2000/svg">
<g clip-path="url(#clip0_1204_21281)">
<path d="M20 33.63C28.667 33.63 35.693 26.6613 35.693 18.065C35.693 9.46869 28.667 2.5 20 2.5C11.333 2.5 4.30701 9.46869 4.30701 18.065C4.30701 26.6613 11.333 33.63 20 33.63Z" fill="#93C9FF"/>
<path d="M4.307 18.065C4.307 9.469 11.333 2.5 20 2.5C28.667 2.5 35.693 9.469 35.693 18.065C35.693 26.661 4.307 26.661 4.307 18.065Z" fill="#3182F6"/>
<path d="M4.30701 18.0642C4.30701 9.46819 35.694 9.46819 35.694 18.0642C35.694 26.6602 4.30701 26.6602 4.30701 18.0642Z" fill="#64A7FF"/>
<path d="M25.885 14.2862C27.0581 14.2862 28.009 13.3433 28.009 12.1802C28.009 11.0171 27.0581 10.0742 25.885 10.0742C24.7119 10.0742 23.761 11.0171 23.761 12.1802C23.761 13.3433 24.7119 14.2862 25.885 14.2862Z" fill="white"/>
<path d="M29.502 37.5H10.498C9.777 37.5 9.302 36.748 9.613 36.097L11.62 31.892C11.783 31.551 12.127 31.334 12.505 31.334H27.496C27.874 31.334 28.218 31.551 28.381 31.892L30.388 36.097C30.699 36.748 30.223 37.5 29.502 37.5Z" fill="#424F57"/>
</g>
<defs>
<clipPath id="clip0_1204_21281">
<rect width="40" height="40" fill="white"/>
</clipPath>
</defs>
</svg>
