<svg width="40" height="40" viewBox="0 0 40 40" fill="none" xmlns="http://www.w3.org/2000/svg">
<g clip-path="url(#clip0_1204_19443)">
<path d="M28.5 3.5H11.5C7.08172 3.5 3.5 7.08172 3.5 11.5V28.5C3.5 32.9183 7.08172 36.5 11.5 36.5H28.5C32.9183 36.5 36.5 32.9183 36.5 28.5V11.5C36.5 7.08172 32.9183 3.5 28.5 3.5Z" fill="#58D848"/>
<path d="M18.103 26.6869C17.642 26.6869 17.182 26.5119 16.83 26.1599L10.852 20.1819C10.149 19.4789 10.149 18.3389 10.852 17.6359C11.555 16.9339 12.695 16.9339 13.398 17.6359L18.103 22.3419L26.602 13.8429C27.306 13.1409 28.446 13.1409 29.148 13.8429C29.851 14.5459 29.851 15.6859 29.148 16.3889L19.376 26.1599C19.024 26.5109 18.564 26.6869 18.103 26.6869Z" fill="white"/>
</g>
<defs>
<clipPath id="clip0_1204_19443">
<rect width="40" height="40" fill="white"/>
</clipPath>
</defs>
</svg>
