<svg width="40" height="40" viewBox="0 0 40 40" fill="none" xmlns="http://www.w3.org/2000/svg">
<g clip-path="url(#clip0_1204_21244)">
<path d="M2.751 6.27934L5.56 16.4443L15.029 8.62234L5.578 3.94434C4.022 3.17434 2.288 4.60634 2.751 6.28034V6.27934Z" fill="#2272EB"/>
<path d="M27.142 27.6137H22.547C22.037 27.6137 21.624 27.2007 21.624 26.6907C21.624 26.1807 22.037 25.7677 22.547 25.7677H34.086C34.256 25.7677 34.418 25.7417 34.576 25.7027C34.871 24.4827 35.044 23.2157 35.044 21.9057C35.044 21.8927 35.042 21.8817 35.042 21.8687C34.756 21.7177 34.432 21.6287 34.086 21.6287C32.945 21.6287 32.017 22.5567 32.017 23.6987C32.017 24.2087 31.604 24.6217 31.094 24.6217C30.584 24.6217 30.172 24.2087 30.172 23.6987C30.172 21.5397 31.928 19.7837 34.086 19.7837C34.368 19.7837 34.639 19.8237 34.904 19.8807C33.906 11.9227 27.129 5.76172 18.9 5.76172C9.98299 5.76172 2.75499 12.9897 2.75499 21.9067C2.75499 30.8237 9.98299 38.0507 18.899 38.0507C25.803 38.0507 31.678 33.7087 33.986 27.6137H27.142Z" fill="#FFC84D"/>
<path d="M18.7087 5.06207L17.3387 3.42853C17.0533 3.0883 16.5462 3.04381 16.206 3.32915L14.5724 4.69917C14.2322 4.98451 14.1877 5.49163 14.4731 5.83185L15.8431 7.46539C16.1284 7.80561 16.6355 7.85011 16.9758 7.56477L18.6093 6.19474C18.9495 5.90941 18.994 5.40229 18.7087 5.06207Z" fill="#B44BD7"/>
<path d="M29.9499 7.13238L27.5695 8.33301C27.0744 8.58272 26.8755 9.1865 27.1252 9.68158L28.3259 12.0619C28.5756 12.557 29.1794 12.7559 29.6744 12.5062L32.0548 11.3056C32.5499 11.0559 32.7488 10.4521 32.4991 9.957L31.2984 7.57666C31.0487 7.08158 30.4449 6.88266 29.9499 7.13238Z" fill="#F66570"/>
<path d="M15.8649 31.1582L13.7901 31.6489C13.358 31.7511 13.0906 32.1843 13.1928 32.6164L13.6835 34.6911C13.7858 35.1233 14.2189 35.3907 14.651 35.2885L16.7258 34.7977C17.1579 34.6955 17.4253 34.2624 17.3231 33.8302L16.8324 31.7555C16.7301 31.3234 16.297 31.0559 15.8649 31.1582Z" fill="white"/>
<path d="M7.30977 29.0073L6.50215 26.4666C6.33417 25.9381 5.76961 25.6459 5.24117 25.8139L2.70045 26.6215C2.17201 26.7895 1.87979 27.3541 2.04777 27.8825L2.8554 30.4232C3.02337 30.9517 3.58793 31.2439 4.11637 31.0759L6.65709 30.2683C7.18553 30.1003 7.47775 29.5358 7.30977 29.0073Z" fill="#6376FF"/>
<path d="M37.718 22.2602C37.241 21.0602 36.188 20.1572 34.903 19.8802C34.638 19.8232 34.367 19.7832 34.085 19.7832C31.926 19.7832 30.171 21.5392 30.171 23.6982C30.171 24.2082 30.584 24.6212 31.093 24.6212C31.602 24.6212 32.016 24.2082 32.016 23.6982C32.016 22.5572 32.944 21.6282 34.085 21.6282C34.431 21.6282 34.755 21.7172 35.041 21.8682C35.55 22.1382 35.935 22.6132 36.082 23.1852C36.124 23.3502 36.154 23.5202 36.154 23.6982C36.154 24.6702 35.479 25.4812 34.575 25.7022C34.417 25.7412 34.254 25.7672 34.085 25.7672H22.546C22.51 25.7672 22.479 25.7842 22.444 25.7882C22.268 25.9322 22.085 26.0632 21.912 26.1942C22.344 26.5202 22.879 27.0232 23.168 27.6132H34.084C36.243 27.6132 37.998 25.8572 37.998 23.6992C37.998 23.1902 37.894 22.7072 37.716 22.2612L37.718 22.2602Z" fill="#2272EB"/>
<path d="M22.879 4.95917C23.7096 4.95917 24.383 4.28581 24.383 3.45517C24.383 2.62454 23.7096 1.95117 22.879 1.95117C22.0484 1.95117 21.375 2.62454 21.375 3.45517C21.375 4.28581 22.0484 4.95917 22.879 4.95917Z" fill="#EDCCF8"/>
<path d="M4.911 36.2619C5.74163 36.2619 6.415 35.5885 6.415 34.7579C6.415 33.9273 5.74163 33.2539 4.911 33.2539C4.08036 33.2539 3.407 33.9273 3.407 34.7579C3.407 35.5885 4.08036 36.2619 4.911 36.2619Z" fill="#EDCCF8"/>
<path d="M32.939 35.9475C33.7696 35.9475 34.443 35.2741 34.443 34.4435C34.443 33.6128 33.7696 32.9395 32.939 32.9395C32.1084 32.9395 31.435 33.6128 31.435 34.4435C31.435 35.2741 32.1084 35.9475 32.939 35.9475Z" fill="#B44BD7"/>
<path d="M35.677 14.7346C36.5076 14.7346 37.181 14.0612 37.181 13.2306C37.181 12.3999 36.5076 11.7266 35.677 11.7266C34.8464 11.7266 34.173 12.3999 34.173 13.2306C34.173 14.0612 34.8464 14.7346 35.677 14.7346Z" fill="#7896FF"/>
<path d="M21.913 26.1942C22.086 26.0632 22.269 25.9322 22.445 25.7882C22.923 25.3972 23.337 24.9092 23.285 24.0492C23.188 22.4442 20.636 21.9922 20.3 21.9922C19.955 21.9922 19.74 22.0252 19.737 22.2352C19.734 22.4452 19.986 22.5172 20.348 22.6262C21.455 22.9602 21.891 23.6072 21.891 24.0682C21.891 24.9082 21.07 25.3242 20.603 25.6242C20.224 25.8682 19.984 25.9272 19.974 26.1342C19.966 26.3112 20.214 26.4022 20.601 26.6482C20.988 26.8942 21.828 27.4482 21.828 28.3832C21.828 29.1052 21.216 29.6492 20.346 29.9942C19.825 30.2012 19.625 30.2932 19.656 30.4912C19.687 30.6892 19.968 30.7302 20.431 30.7302C21.214 30.7302 23.249 30.3092 23.374 28.5342C23.397 28.2122 23.31 27.9032 23.168 27.6132C22.879 27.0232 22.344 26.5202 21.913 26.1942Z" fill="#FF6D00"/>
<path d="M11.711 19.1891C11.475 19.3331 11.172 19.1431 11.203 18.8691C11.377 17.3421 12.569 16.1031 14.115 15.9671C15.661 15.8321 17.05 16.8451 17.486 18.3191C17.564 18.5841 17.299 18.8231 17.042 18.7231C16.48 18.5041 15.531 18.2491 14.324 18.3551C13.117 18.4611 12.227 18.8761 11.711 19.1891Z" fill="black"/>
<path d="M27.092 19.1873C27.328 19.3313 27.631 19.1413 27.6 18.8673C27.426 17.3403 26.234 16.1013 24.688 15.9653C23.142 15.8293 21.753 16.8433 21.317 18.3173C21.239 18.5823 21.504 18.8213 21.761 18.7213C22.323 18.5023 23.272 18.2473 24.479 18.3533C25.686 18.4593 26.576 18.8743 27.092 19.1873Z" fill="black"/>
</g>
<defs>
<clipPath id="clip0_1204_21244">
<rect width="40" height="40" fill="white"/>
</clipPath>
</defs>
</svg>
