<svg width="40" height="41" viewBox="0 0 40 41" fill="none" xmlns="http://www.w3.org/2000/svg">
<g clip-path="url(#clip0_1373_5729)">
<path d="M33.588 4H6.412C4.80375 4 3.5 5.30375 3.5 6.912V34.088C3.5 35.6963 4.80375 37 6.412 37H33.588C35.1963 37 36.5 35.6963 36.5 34.088V6.912C36.5 5.30375 35.1963 4 33.588 4Z" fill="#8595AA"/>
<path d="M23.079 10.0647H16.921C16.251 10.0647 15.708 9.52167 15.708 8.85167C15.708 8.18167 16.251 7.63867 16.921 7.63867H23.079C23.749 7.63867 24.292 8.18167 24.292 8.85167C24.292 9.52167 23.749 10.0647 23.079 10.0647Z" fill="#495B73"/>
<path d="M36.5 18.7031H3.5V20.6441H36.5V18.7031Z" fill="#65778E"/>
<path d="M23.079 26.7112H16.921C16.251 26.7112 15.708 26.1682 15.708 25.4982C15.708 24.8282 16.251 24.2852 16.921 24.2852H23.079C23.749 24.2852 24.292 24.8282 24.292 25.4982C24.292 26.1682 23.749 26.7112 23.079 26.7112Z" fill="#495B73"/>
</g>
<defs>
<clipPath id="clip0_1373_5729">
<rect width="40" height="40" fill="white" transform="translate(0 0.5)"/>
</clipPath>
</defs>
</svg>
