<svg width="44" height="46" viewBox="0 0 44 46" fill="none" xmlns="http://www.w3.org/2000/svg">
<g clip-path="url(#clip0_1204_19501)" filter="url(#filter0_d_1204_19501)">
<path d="M22 37.5C31.665 37.5 39.5 29.665 39.5 20C39.5 10.335 31.665 2.5 22 2.5C12.335 2.5 4.5 10.335 4.5 20C4.5 29.665 12.335 37.5 22 37.5Z" fill="#FFC84D"/>
<path d="M32.159 22.8911C32.065 22.9121 31.96 22.9271 31.864 22.9481C29.792 25.2331 26.338 26.5141 22.417 26.5141C17.245 26.5141 14.224 25.2261 12.567 22.9281C12.505 22.9141 12.436 22.9051 12.375 22.8911C11.955 22.7961 11.54 23.0891 11.58 23.4781C12.08 28.4171 16.671 32.2861 22.267 32.2861C27.863 32.2861 32.455 28.4171 32.954 23.4781C32.993 23.0881 32.579 22.7961 32.159 22.8911Z" fill="#FF6D00"/>
<path d="M22.417 26.5137C26.338 26.5137 29.792 25.2327 31.864 22.9477C29.045 23.5597 25.773 23.9187 22.267 23.9187C18.72 23.9187 15.409 23.5537 12.567 22.9277C14.224 25.2257 17.245 26.5137 22.417 26.5137Z" fill="white"/>
<path d="M19.161 19.9815L16.317 19.1085C16.121 19.0485 15.908 19.0885 15.747 19.2155L13.416 21.0635C13.011 21.3845 12.415 21.1015 12.406 20.5855L12.357 17.6115C12.354 17.4065 12.25 17.2165 12.079 17.1025L9.601 15.4565C9.171 15.1705 9.255 14.5155 9.744 14.3485L12.558 13.3835C12.752 13.3165 12.901 13.1595 12.956 12.9615L13.756 10.0965C13.895 9.59948 14.544 9.47648 14.854 9.88948L16.642 12.2675C16.765 12.4315 16.961 12.5245 17.166 12.5155L20.138 12.3905C20.654 12.3685 20.971 12.9485 20.674 13.3705L18.965 15.8055C18.847 15.9735 18.82 16.1885 18.891 16.3805L19.928 19.1685C20.108 19.6525 19.655 20.1325 19.161 19.9815Z" fill="#FFF3B8"/>
<path d="M24.839 19.9815L27.683 19.1085C27.879 19.0485 28.092 19.0885 28.253 19.2155L30.584 21.0635C30.989 21.3845 31.585 21.1015 31.594 20.5855L31.643 17.6115C31.646 17.4065 31.75 17.2165 31.921 17.1025L34.399 15.4565C34.829 15.1705 34.745 14.5155 34.256 14.3485L31.442 13.3835C31.248 13.3165 31.099 13.1595 31.044 12.9615L30.244 10.0965C30.105 9.59948 29.456 9.47648 29.146 9.88948L27.358 12.2675C27.235 12.4315 27.039 12.5245 26.834 12.5155L23.862 12.3905C23.346 12.3685 23.029 12.9485 23.326 13.3705L25.035 15.8055C25.153 15.9735 25.18 16.1885 25.109 16.3805L24.072 19.1685C23.892 19.6525 24.345 20.1325 24.839 19.9815Z" fill="#FFF3B8"/>
</g>
<defs>
<filter id="filter0_d_1204_19501" x="-2" y="0" width="48" height="48" filterUnits="userSpaceOnUse" color-interpolation-filters="sRGB">
<feFlood flood-opacity="0" result="BackgroundImageFix"/>
<feColorMatrix in="SourceAlpha" type="matrix" values="0 0 0 0 0 0 0 0 0 0 0 0 0 0 0 0 0 0 127 0" result="hardAlpha"/>
<feOffset dy="4"/>
<feGaussianBlur stdDeviation="2"/>
<feComposite in2="hardAlpha" operator="out"/>
<feColorMatrix type="matrix" values="0 0 0 0 0 0 0 0 0 0 0 0 0 0 0 0 0 0 0.25 0"/>
<feBlend mode="normal" in2="BackgroundImageFix" result="effect1_dropShadow_1204_19501"/>
<feBlend mode="normal" in="SourceGraphic" in2="effect1_dropShadow_1204_19501" result="shape"/>
</filter>
<clipPath id="clip0_1204_19501">
<rect width="40" height="40" fill="white" transform="translate(2)"/>
</clipPath>
</defs>
</svg>
