<svg width="60" height="60" viewBox="0 0 89 89" fill="none" xmlns="http://www.w3.org/2000/svg">
<g clip-path="url(#clip0_2592_6767)">
<path d="M44.5 79.9844C66.0046 79.9844 83.4375 62.5515 83.4375 41.0469C83.4375 19.5423 66.0046 2.10938 44.5 2.10938C22.9954 2.10938 5.5625 19.5423 5.5625 41.0469C5.5625 62.5515 22.9954 79.9844 44.5 79.9844Z" fill="#EBEBEB"/>
<path d="M44.5 70.0121C60.4969 70.0121 73.465 57.044 73.465 41.0471C73.465 25.0501 60.4969 12.082 44.5 12.082C28.503 12.082 15.5349 25.0501 15.5349 41.0471C15.5349 57.044 28.503 70.0121 44.5 70.0121Z" fill="#F3F3F3"/>
<path d="M61.9752 25.4545L58.9158 56.3998H53.8272L51.0704 39.5254C50.3785 32.9394 54.1387 26.6916 60.2819 24.2196C61.1297 23.8792 62.0397 24.5422 61.9752 25.4545Z" fill="#B7B7B7"/>
<path d="M53.8272 56.4004L51.7735 83.6477C51.7313 85.4277 53.1619 86.8918 54.9419 86.8918H57.7922C59.5722 86.8918 61.0028 85.4277 60.9606 83.6477L58.9136 56.4004H53.8272Z" fill="#767676"/>
<path d="M33.2237 56.4004L31.17 83.6477C31.1277 85.4277 32.5584 86.8918 34.3384 86.8918H37.1886C38.9686 86.8918 40.3993 85.4277 40.357 83.6477L38.31 56.4004H33.2215H33.2237Z" fill="#767676"/>
<path d="M38.2166 55.0517C38.2299 53.1337 39.7296 52.5975 39.7296 52.5975L39.7207 52.5886C39.783 52.5575 39.8497 52.5419 39.9143 52.5107L43.6656 51.1802C45.7148 50.1322 46.9631 47.5267 46.6983 44.8434L44.0528 25.6394C43.9326 24.7739 43.1939 24.1309 42.3217 24.1309C41.3472 24.1309 40.5617 24.9274 40.5729 25.902L40.7798 42.4582C40.7798 43.0745 40.4794 43.6263 40.0122 43.8644C39.7007 44.0246 39.3469 44.0246 39.0354 43.8644C38.5704 43.6263 38.2678 43.0745 38.2678 42.4582L37.9852 25.8486C37.9696 24.894 37.1909 24.1309 36.2363 24.1309H35.2907C34.3362 24.1309 33.5597 24.8963 33.5419 25.8486L33.2593 42.4582C33.2593 43.0745 32.9589 43.6263 32.4894 43.8644C32.1802 44.0246 31.8242 44.0246 31.5127 43.8644C31.0476 43.6263 30.745 43.0745 30.745 42.4582L30.9542 25.902C30.9675 24.9274 30.1799 24.1309 29.2053 24.1309C28.3309 24.1309 27.5922 24.7761 27.4743 25.6394L24.8288 44.8434C24.564 47.5245 25.8122 50.13 27.8614 51.1802L31.6128 52.5107C31.6729 52.5419 31.7374 52.5575 31.7997 52.5864L31.7886 52.5975C31.7886 52.5975 33.3572 53.1471 33.3105 55.1585L33.2237 56.4H38.3123L38.2166 55.0517Z" fill="#B7B7B7"/>
</g>
<defs>
<clipPath id="clip0_2592_6767">
<rect width="89" height="89" fill="white"/>
</clipPath>
</defs>
</svg>
