<svg width="15" height="14" viewBox="0 0 15 14" fill="none" xmlns="http://www.w3.org/2000/svg">
<path d="M7.65527 0.152344C11.4758 0.152431 14.5732 3.24977 14.5732 7.07031C14.5732 10.8908 11.4757 13.9882 7.65527 13.9883C3.83473 13.9883 0.737392 10.8908 0.737305 7.07031C0.737305 3.24971 3.83467 0.152344 7.65527 0.152344ZM7.63281 2.66016C5.97599 2.66019 4.63281 4.00332 4.63281 5.66016V10.9482C4.63281 11.5571 5.12647 12.0508 5.73535 12.0508C6.34426 12.0508 6.83789 11.5571 6.83789 10.9482V10.5791C6.83789 9.76603 7.49748 9.10645 8.31055 9.10645H8.40723C10.5604 9.10645 11.8838 7.83528 11.8838 5.88965C11.8837 3.98319 10.5866 2.66032 8.47266 2.66016H7.63281ZM8.00488 4.4502C9.04245 4.4502 9.60048 5.00778 9.60059 5.88965C9.60059 6.77167 9.04255 7.35547 8.00488 7.35547C7.36043 7.35524 6.83802 6.83295 6.83789 6.18848V5.61719C6.83807 4.97275 7.36046 4.45042 8.00488 4.4502Z" fill="#ADADAF"/>
</svg>
