<svg width="30" height="30" viewBox="0 0 30 30" fill="none" xmlns="http://www.w3.org/2000/svg">
<path d="M15 0C23.2843 0 30 6.71573 30 15C30 23.2843 23.2843 30 15 30C6.71573 30 0 23.2843 0 15C0 6.71573 6.71573 0 15 0ZM11.4473 5.4375C9.79041 5.4375 8.44727 6.78065 8.44727 8.4375V23.4092C8.44727 24.7295 9.51758 25.7998 10.8379 25.7998C12.158 25.7996 13.2285 24.7293 13.2285 23.4092V22.416C13.2285 20.7592 14.5717 19.416 16.2285 19.416H16.6309C21.2996 19.416 24.1689 16.6592 24.1689 12.4404C24.1689 8.30616 21.3558 5.4375 16.7715 5.4375H11.4473ZM15.7598 9.31836C18.0094 9.31851 19.2187 10.5282 19.2188 12.4404C19.2188 14.3528 18.0095 15.619 15.7598 15.6191C14.3619 15.6191 13.2287 14.4857 13.2285 13.0879V11.8496C13.2287 10.4518 14.3619 9.31836 15.7598 9.31836Z" fill="#58D848"/>
</svg>
