<svg width="38" height="37" viewBox="0 0 38 37" fill="none" xmlns="http://www.w3.org/2000/svg">
<path d="M16.1468 2.78116C17.0449 0.0172243 20.9551 0.01722 21.8532 2.78115L24.1638 9.8926C24.5654 11.1287 25.7173 11.9656 27.017 11.9656H34.4944C37.4006 11.9656 38.6089 15.6844 36.2578 17.3926L30.2084 21.7877C29.1569 22.5517 28.717 23.9058 29.1186 25.1418L31.4292 32.2533C32.3273 35.0172 29.1639 37.3156 26.8127 35.6074L20.7634 31.2123C19.7119 30.4483 18.2881 30.4483 17.2366 31.2123L11.1873 35.6074C8.83614 37.3156 5.6727 35.0172 6.57075 32.2533L8.8814 25.1418C9.28303 23.9058 8.84305 22.5517 7.79159 21.7877L1.74223 17.3926C-0.608913 15.6844 0.599411 11.9656 3.50558 11.9656H10.983C12.2827 11.9656 13.4346 11.1287 13.8362 9.89261L16.1468 2.78116Z" fill="white" fill-opacity="0.5"/>
</svg>
