<svg width="44" height="46" viewBox="0 0 44 46" fill="none" xmlns="http://www.w3.org/2000/svg">
<g clip-path="url(#clip0_1204_19511)" filter="url(#filter0_d_1204_19511)">
<path d="M22 37.5C31.665 37.5 39.5 29.665 39.5 20C39.5 10.335 31.665 2.5 22 2.5C12.335 2.5 4.5 10.335 4.5 20C4.5 29.665 12.335 37.5 22 37.5Z" fill="#FFC84D"/>
<path d="M15.822 23.3988C18.4498 23.3988 20.58 21.2686 20.58 18.6408C20.58 16.013 18.4498 13.8828 15.822 13.8828C13.1942 13.8828 11.064 16.013 11.064 18.6408C11.064 21.2686 13.1942 23.3988 15.822 23.3988Z" fill="black"/>
<path d="M14.388 19.9177C15.6732 19.9177 16.715 18.8758 16.715 17.5907C16.715 16.3055 15.6732 15.2637 14.388 15.2637C13.1028 15.2637 12.061 16.3055 12.061 17.5907C12.061 18.8758 13.1028 19.9177 14.388 19.9177Z" fill="white"/>
<path d="M17.51 21.2477C18.0816 21.2477 18.545 20.7843 18.545 20.2127C18.545 19.6411 18.0816 19.1777 17.51 19.1777C16.9384 19.1777 16.475 19.6411 16.475 20.2127C16.475 20.7843 16.9384 21.2477 17.51 21.2477Z" fill="white"/>
<path d="M28.178 23.3988C30.8058 23.3988 32.936 21.2686 32.936 18.6408C32.936 16.013 30.8058 13.8828 28.178 13.8828C25.5502 13.8828 23.42 16.013 23.42 18.6408C23.42 21.2686 25.5502 23.3988 28.178 23.3988Z" fill="black"/>
<path d="M26.744 19.9177C28.0292 19.9177 29.071 18.8758 29.071 17.5907C29.071 16.3055 28.0292 15.2637 26.744 15.2637C25.4588 15.2637 24.417 16.3055 24.417 17.5907C24.417 18.8758 25.4588 19.9177 26.744 19.9177Z" fill="white"/>
<path d="M29.867 21.2477C30.4386 21.2477 30.902 20.7843 30.902 20.2127C30.902 19.6411 30.4386 19.1777 29.867 19.1777C29.2954 19.1777 28.832 19.6411 28.832 20.2127C28.832 20.7843 29.2954 21.2477 29.867 21.2477Z" fill="white"/>
<path d="M15.453 9.95684C16.593 9.42484 17.129 8.85684 17.575 8.34984C17.832 8.05784 18.196 8.19184 18.193 8.60784C18.186 9.50684 17.631 10.7278 16.137 11.4248C14.643 12.1208 13.351 11.7618 12.658 11.1888C12.337 10.9238 12.468 10.5578 12.858 10.5488C13.533 10.5338 14.313 10.4878 15.453 9.95684Z" fill="black"/>
<path d="M28.547 9.95684C27.407 9.42484 26.871 8.85684 26.425 8.34984C26.168 8.05784 25.804 8.19184 25.807 8.60784C25.814 9.50684 26.369 10.7278 27.863 11.4248C29.357 12.1208 30.649 11.7618 31.342 11.1888C31.663 10.9238 31.532 10.5578 31.142 10.5488C30.467 10.5338 29.687 10.4878 28.547 9.95684Z" fill="black"/>
<path d="M22 28.4506C20.271 28.4506 18.958 28.1236 18.119 27.8246C17.759 27.6966 17.451 28.1116 17.675 28.4216C18.398 29.4196 19.777 30.7476 22 30.7476C24.223 30.7476 25.602 29.4186 26.325 28.4216C26.549 28.1116 26.241 27.6966 25.881 27.8246C25.042 28.1236 23.729 28.4506 22 28.4506Z" fill="#FF6D00"/>
<path d="M31.296 21.3736C32.047 21.0676 32.826 21.8376 32.478 22.5706C31.714 24.1766 30.076 25.2876 28.179 25.2876C26.282 25.2876 24.644 24.1776 23.88 22.5706C23.532 21.8386 24.311 21.0676 25.062 21.3736C27.14 22.2206 29.219 22.2206 31.297 21.3736H31.296Z" fill="#9FBDF7"/>
<path d="M18.939 21.3736C19.69 21.0676 20.469 21.8376 20.121 22.5706C19.357 24.1766 17.719 25.2876 15.822 25.2876C13.925 25.2876 12.287 24.1776 11.523 22.5706C11.175 21.8386 11.954 21.0676 12.705 21.3736C14.783 22.2206 16.862 22.2206 18.94 21.3736H18.939Z" fill="#9FBDF7"/>
</g>
<defs>
<filter id="filter0_d_1204_19511" x="-2" y="0" width="48" height="48" filterUnits="userSpaceOnUse" color-interpolation-filters="sRGB">
<feFlood flood-opacity="0" result="BackgroundImageFix"/>
<feColorMatrix in="SourceAlpha" type="matrix" values="0 0 0 0 0 0 0 0 0 0 0 0 0 0 0 0 0 0 127 0" result="hardAlpha"/>
<feOffset dy="4"/>
<feGaussianBlur stdDeviation="2"/>
<feComposite in2="hardAlpha" operator="out"/>
<feColorMatrix type="matrix" values="0 0 0 0 0 0 0 0 0 0 0 0 0 0 0 0 0 0 0.25 0"/>
<feBlend mode="normal" in2="BackgroundImageFix" result="effect1_dropShadow_1204_19511"/>
<feBlend mode="normal" in="SourceGraphic" in2="effect1_dropShadow_1204_19511" result="shape"/>
</filter>
<clipPath id="clip0_1204_19511">
<rect width="40" height="40" fill="white" transform="translate(2)"/>
</clipPath>
</defs>
</svg>
