<svg width="160" height="45" viewBox="0 0 160 45" fill="none" xmlns="http://www.w3.org/2000/svg">
<g clip-path="url(#clip0_1204_21216)">
<path d="M21.792 21.5417C21.662 21.3927 21.541 21.2438 21.418 21.0938C21.415 21.1858 21.407 21.2827 21.401 21.3777C21.534 21.4227 21.662 21.4827 21.792 21.5417Z" fill="#FF9C00"/>
<path d="M34.214 26.7C34.579 28.59 34.03 30.621 32.567 32.084C31.601 33.05 30.384 33.595 29.127 33.764C30.991 33.782 32.625 33.285 33.829 32.207C33.903 32.14 33.987 32.086 34.058 32.015C35.49 30.583 36.012 28.464 35.751 26.043C35.618 26.128 35.481 26.213 35.321 26.293C34.968 26.47 34.595 26.599 34.214 26.7Z" fill="#FF9C00"/>
<path d="M9.681 12.9112C9.724 12.8902 9.758 12.8592 9.802 12.8392C10.119 12.6912 10.445 12.5882 10.773 12.5142C11.518 10.9222 13.265 7.77422 15.22 8.34322C15.433 8.40522 15.622 8.51022 15.8 8.63122C16.298 8.14622 16.889 7.81722 17.516 7.63822C15.015 7.32722 12.821 7.83722 11.352 9.30622C11.281 9.37722 11.226 9.46122 11.16 9.53522C10.346 10.4432 9.864 11.5982 9.682 12.9102L9.681 12.9112Z" fill="#FF9C00"/>
<path d="M38.264 17.936C37.008 15.895 32.927 15.974 32.927 15.974C32.927 15.974 34.065 14.287 31.711 12.56C30.697 11.816 29.509 11.831 28.485 12.086C29.276 12.224 30.035 12.573 30.646 13.184C32.237 14.775 32.237 17.354 30.646 18.945C30.59 19.001 30.525 19.039 30.467 19.091C31.666 20.728 32.409 22.343 32.629 23.678C33.467 24.544 34.001 25.595 34.214 26.7C34.595 26.599 34.968 26.469 35.321 26.292C35.481 26.212 35.618 26.127 35.751 26.042C38.233 24.448 36.264 21.977 36.264 21.977C36.264 21.977 39.52 19.975 38.264 17.934V17.936Z" fill="#036D50"/>
<path d="M16.091 15.1293C16.565 16.1453 16.644 17.2423 16.397 18.2533C17.084 18.6163 17.668 19.1843 18.021 19.9423C18.244 20.4213 18.349 20.9233 18.359 21.4203C19.339 21.0613 20.415 21.0443 21.401 21.3793C21.407 21.2843 21.415 21.1873 21.418 21.0953C21.452 20.0743 21.322 19.2043 21.087 18.4653C20.52 18.5673 19.939 18.5413 19.385 18.3273C17.55 17.6183 16.732 15.3103 17.559 13.1713C17.573 13.1353 17.591 13.0993 17.606 13.0633C17.46 11.5713 17.031 9.4693 15.8 8.6313C15.622 8.5103 15.433 8.4053 15.22 8.3433C13.265 7.7743 11.518 10.9223 10.773 12.5143C12.895 12.0393 15.134 13.0773 16.091 15.1283V15.1293Z" fill="#036D50"/>
<path d="M19.385 18.3281C19.939 18.5421 20.52 18.5681 21.087 18.4661C22.399 18.2301 23.627 17.2331 24.204 15.7401C25.03 13.6021 24.551 10.4171 22.716 9.70814C20.912 9.01114 18.474 10.9661 17.606 13.0641C17.591 13.1001 17.573 13.1361 17.559 13.1721C16.733 15.3101 17.551 17.6191 19.385 18.3281ZM18.77 13.6401C19.209 12.5051 20.485 11.9401 21.62 12.3791C22.755 12.8171 23.32 14.0941 22.881 15.2291C22.442 16.3641 21.166 16.9291 20.031 16.4901C18.896 16.0511 18.331 14.7751 18.769 13.6401H18.77Z" fill="#FFFEFA"/>
<path d="M24.086 23.6022C24.058 23.6302 24.041 23.6632 24.014 23.6912C24.223 24.1282 24.358 24.5912 24.423 25.0632C24.743 25.0982 25.061 25.1592 25.373 25.2472C25.429 25.1832 25.473 25.1112 25.534 25.0502C27.077 23.5082 29.578 23.5082 31.12 25.0502C32.662 26.5922 32.662 29.0932 31.12 30.6362C30.668 31.0882 30.13 31.3912 29.561 31.5782C29.469 32.3352 29.23 33.0692 28.842 33.7502C28.937 33.7532 29.034 33.7622 29.128 33.7632C30.385 33.5942 31.602 33.0502 32.568 32.0832C34.031 30.6202 34.58 28.5892 34.215 26.6992C34.002 25.5952 33.468 24.5432 32.63 23.6772C32.607 23.6532 32.592 23.6252 32.569 23.6022C30.227 21.2602 26.43 21.2602 24.088 23.6022H24.086Z" fill="#D12030"/>
<path d="M29.561 31.579C30.129 31.392 30.668 31.089 31.12 30.637C32.662 29.095 32.662 26.594 31.12 25.051C29.577 23.509 27.076 23.509 25.534 25.051C25.473 25.112 25.43 25.184 25.373 25.248C26.305 25.509 27.185 26.005 27.918 26.738C29.24 28.06 29.772 29.857 29.561 31.579Z" fill="#F56570"/>
<path d="M32.57 23.5991C32.59 23.6291 32.61 23.6591 32.63 23.6791C32.41 22.3391 31.67 20.7291 30.47 19.0891C30.52 19.0391 30.59 18.9991 30.65 18.9491C32.24 17.3491 32.24 14.7691 30.65 13.1791C30.04 12.5691 29.28 12.2191 28.49 12.0891C28.35 12.0591 28.22 12.0291 28.09 12.0191C28.75 10.5291 28.47 8.72914 27.25 7.49914C25.66 5.90914 23.08 5.90914 21.49 7.49914C21.28 7.71914 21.1 7.94914 20.94 8.18914C19.92 7.48914 18.66 7.30914 17.52 7.63914C16.89 7.81914 16.3 8.14914 15.8 8.62914C17.03 9.46914 17.46 11.5691 17.61 13.0691C18.47 10.9691 20.91 9.00914 22.72 9.70914C24.55 10.4191 25.03 13.5991 24.2 15.7391C23.63 17.2291 22.4 18.2291 21.09 18.4691C21.32 19.2091 21.45 20.0791 21.42 21.0991C21.54 21.2491 21.66 21.3991 21.79 21.5391C21.66 21.4891 21.53 21.4291 21.4 21.3791C20.42 21.0391 19.34 21.0591 18.36 21.4191C18.35 20.9191 18.24 20.4191 18.02 19.9391C17.67 19.1791 17.08 18.6191 16.4 18.2491C16.64 17.2391 16.57 16.1491 16.09 15.1291C15.13 13.0791 12.9 12.0391 10.77 12.5191C10.45 12.5891 10.12 12.6891 9.8 12.8391C9.76 12.8591 9.72 12.8891 9.68 12.9091C9.12 16.9791 11.48 22.5891 16.13 27.2391C16.3 27.4091 16.48 27.5691 16.66 27.7391C20.61 31.4791 25.15 33.6091 28.84 33.7491C29.23 33.0691 29.47 32.3391 29.56 31.5791C29.77 29.8591 29.24 28.0591 27.92 26.7391C27.18 26.0091 26.3 25.5091 25.37 25.2491C25.06 25.1591 24.74 25.0991 24.42 25.0591C24.36 24.5891 24.22 24.1291 24.01 23.6891C24.04 23.6591 24.06 23.6291 24.09 23.5991C26.43 21.2591 30.23 21.2591 32.57 23.5991ZM27.68 18.4891L27.92 18.0191C28.1 17.6691 28.52 17.5391 28.87 17.7091L29.34 17.9591C29.69 18.1291 29.82 18.5591 29.64 18.9091L29.4 19.3691C29.23 19.7191 28.8 19.8591 28.45 19.6791L27.98 19.4391C27.64 19.2591 27.5 18.8391 27.68 18.4891ZM22.83 22.3491C22.46 22.4791 22.06 22.2791 21.93 21.9091L21.81 21.5491L21.76 21.4091C21.63 21.0391 21.83 20.6391 22.19 20.5191L22.69 20.3391C23.06 20.2191 23.46 20.4091 23.59 20.7791L23.76 21.2791C23.89 21.6491 23.7 22.0491 23.33 22.1791L22.96 22.2991L22.83 22.3491Z" fill="#23B169"/>
<path d="M20.031 16.4903C21.166 16.9293 22.442 16.3643 22.881 15.2293C23.32 14.0943 22.755 12.8173 21.62 12.3793C20.485 11.9403 19.209 12.5053 18.77 13.6403C18.331 14.7753 18.895 16.0513 20.031 16.4903Z" fill="#FFD900"/>
<path d="M27.9189 18.0217L27.6787 18.4908C27.501 18.8378 27.6382 19.2632 27.9853 19.441L28.4543 19.6812C28.8014 19.8589 29.2268 19.7217 29.4045 19.3746L29.6448 18.9056C29.8225 18.5585 29.6852 18.1331 29.3382 17.9554L28.8691 17.7151C28.5221 17.5374 28.0967 17.6746 27.9189 18.0217Z" fill="#FFD900"/>
<path d="M21.931 21.9119C22.059 22.2799 22.46 22.4759 22.829 22.3479L22.958 22.3029L23.327 22.1749C23.695 22.0469 23.891 21.6449 23.763 21.2769L23.59 20.7779C23.462 20.4099 23.061 20.2139 22.692 20.3419L22.193 20.5149C21.825 20.6419 21.629 21.0439 21.757 21.4129L21.804 21.5499L21.929 21.9119H21.931Z" fill="#FFD900"/>
<path d="M29.128 33.7647C29.034 33.7647 28.937 33.7557 28.842 33.7517C25.147 33.6137 20.606 31.4837 16.661 27.7397C16.484 27.5717 16.303 27.4117 16.129 27.2377C11.48 22.5887 9.116 16.9827 9.681 12.9117C9.863 11.5997 10.345 10.4447 11.159 9.5367C11.177 9.4957 11.188 9.4707 11.188 9.4707L8.278 12.3807C2.008 18.6517 2.008 28.8177 8.278 35.0877C14.548 41.3577 24.715 41.3577 30.985 35.0877L33.895 32.1777C33.895 32.1777 33.87 32.1897 33.829 32.2067C32.625 33.2847 30.991 33.7817 29.127 33.7637L29.128 33.7647Z" fill="#FFC450"/>
</g>
<g clip-path="url(#clip1_1204_21216)">
<path d="M59.0312 7.6875C59.0312 8.80469 59.2969 10.2422 60.25 11.2656C61.1797 10.2578 61.4219 8.83594 61.4375 7.6875V7.5625H60.5469V6.17188H64.6094V7.5625H63.0938V7.6875C63.0938 9.20312 63.6406 10.9688 65.25 11.7812L64.3438 13.0469C63.2891 12.4844 62.6406 11.5547 62.2812 10.4688C61.9297 11.5859 61.3203 12.5938 60.25 13.2031C59.1953 12.6016 58.5781 11.6016 58.2344 10.5156C57.8594 11.5859 57.2109 12.5078 56.1719 13.0469L55.25 11.7812C56.8438 10.9375 57.4219 9.1875 57.4219 7.6875V7.5625H55.7812V6.17188H59.9375V7.5625H59.0312V7.6875ZM67.4688 5.26562V13.5H65.7344V5.26562H67.4688ZM67.4688 14.2031V19.2188H57.8125V14.2031H67.4688ZM59.5312 15.5625V17.8125H65.7812V15.5625H59.5312ZM80.4375 5.28125V9.71875H82.4062V11.1562H80.4375V15.8281H78.7031V5.28125H80.4375ZM77.6875 6.84375V8.23438H69.3125V6.84375H72.6406V5.26562H74.375V6.84375H77.6875ZM73.5 8.8125C75.5312 8.8125 76.9375 9.89062 76.9531 11.5156C76.9375 13.125 75.5312 14.1875 73.5 14.1875C71.4531 14.1875 70.0312 13.125 70.0312 11.5156C70.0312 9.89062 71.4531 8.8125 73.5 8.8125ZM73.5 10.1562C72.4219 10.1562 71.7188 10.6562 71.7188 11.5156C71.7188 12.3594 72.4219 12.8594 73.5 12.8438C74.5781 12.8594 75.2969 12.3594 75.2969 11.5156C75.2969 10.6562 74.5781 10.1562 73.5 10.1562ZM81 17.7031V19.1094H71.3906V15H73.125V17.7031H81ZM92.3594 6.73438V11.9219H89.0156V14.5781C90.4766 14.5625 91.8594 14.5 93.4531 14.2031L93.5938 15.625C91.7031 15.9688 90.1094 16.0156 88.3281 16.0156H87.3438V10.5469H90.6875V8.125H87.3281V6.73438H92.3594ZM99.0781 5.26562V19.3906H97.4219V5.26562H99.0781ZM96.1719 5.5625V18.6719H94.5312V11.5938H92.9844V10.1719H94.5312V5.5625H96.1719ZM106.094 8.65625C106.078 11.25 107.438 13.8438 109.734 14.8281L108.703 16.2188C107.078 15.4688 105.883 13.9688 105.234 12.125C104.586 14.1172 103.375 15.7422 101.656 16.5469L100.594 15.0938C102.953 14.0781 104.328 11.375 104.328 8.65625V6.40625H106.094V8.65625ZM112.5 5.26562V19.4062H110.75V5.26562H112.5ZM126.375 5.26562V19.3906H124.625V5.26562H126.375ZM122.938 6.64062V8.0625H121.578V14.3906C122.258 14.3438 122.922 14.2812 123.562 14.2031L123.656 15.5C120.625 15.9844 117.312 16.0469 114.719 16.0469L114.547 14.625L116.297 14.6094V8.0625H114.922V6.64062H122.938ZM117.969 14.5625C118.594 14.5547 119.234 14.5312 119.875 14.5V8.0625H117.969V14.5625ZM143.438 5.84375V10.75H139.5V12.2344H145.078V13.6406H132.203V12.2344H137.75V10.75H133.828V5.84375H143.438ZM135.516 7.20312V9.375H141.719V7.20312H135.516ZM143.5 14.8281V19.3906H141.766V16.2031H133.625V14.8281H143.5ZM158.922 12.9062V14.3125H146.016V12.9062H151.609V11.7344H147.656V7.98438H155.594V6.9375H147.609V5.57812H157.328V9.25H149.375V10.375H157.609V11.7344H153.328V12.9062H158.922ZM157.406 15.2031V19.2969H155.656V16.5781H147.453V15.2031H157.406Z" fill="#0F1C0D"/>
</g>
<g clip-path="url(#clip2_1204_21216)">
<path d="M59.6348 29.1016V39H58.1172V30.6055H58.0625L55.6973 32.1504V30.7148L58.1582 29.1016H59.6348ZM65.5957 39.1367C63.2988 39.1367 61.959 37.291 61.959 34.0508C61.959 30.8379 63.3262 28.9648 65.5957 28.9648C67.8652 28.9648 69.2324 30.8379 69.2324 34.0508C69.2324 37.291 67.8789 39.1367 65.5957 39.1367ZM65.5957 37.8379C66.9355 37.8379 67.7285 36.5254 67.7285 34.0508C67.7285 31.5898 66.9219 30.2363 65.5957 30.2363C64.2695 30.2363 63.4629 31.5898 63.4629 34.0508C63.4629 36.5254 64.2559 37.8379 65.5957 37.8379ZM80.8535 27.9121V40.1621H79.6094V33.8047H78.0918V39.5742H76.875V28.2402H78.0918V32.752H79.6094V27.9121H80.8535ZM75.6582 29.4707C75.6445 32.6973 74.5781 35.582 71.0781 37.5645L70.3262 36.6621C73.0469 35.124 74.1953 33.0391 74.4004 30.5371H70.8457V29.4707H75.6582Z" fill="#45A639"/>
</g>
<defs>
<clipPath id="clip0_1204_21216">
<rect y="2.5" width="40" height="40" rx="20" fill="white"/>
</clipPath>
<clipPath id="clip1_1204_21216">
<rect width="105" height="24" fill="white" transform="translate(55)"/>
</clipPath>
<clipPath id="clip2_1204_21216">
<rect width="104" height="21" fill="white" transform="translate(55 24)"/>
</clipPath>
</defs>
</svg>
