<svg width="80" height="68" viewBox="0 0 80 68" fill="none" xmlns="http://www.w3.org/2000/svg">
<g clip-path="url(#clip0_2380_7335)">
<mask id="mask0_2380_7335" style="mask-type:luminance" maskUnits="userSpaceOnUse" x="0" y="0" width="80" height="68">
<path d="M0 0H80V68H0V0Z" fill="white"/>
</mask>
<g mask="url(#mask0_2380_7335)">
<path fill-rule="evenodd" clip-rule="evenodd" d="M51.4959 10.5277C57.2386 16.7644 56.5085 49.0765 56.0888 59.868C57.4127 59.9869 58.7304 60.4558 60.0418 60.6027C60.4111 7.81733 51.3217 0.158203 51.3217 0.158203C46.8463 12.2189 46.649 29.4785 46.649 29.4785L47.0226 35.9747C48.5144 14.2448 51.4959 10.5277 51.4959 10.5277Z" fill="#009D85"/>
<path fill-rule="evenodd" clip-rule="evenodd" d="M48.2744 45.9137C48.2744 45.9137 49.4686 52.1268 48.8126 58.9991C49.8933 59.0523 50.9739 59.1148 52.0526 59.1866C52.2669 53.9386 52.2922 43.4959 49.3698 40.2191C49.3698 40.2191 47.0066 36.9828 42.9551 36.2051L43.8844 41.3843C43.8844 41.3811 48.0199 42.4183 48.2744 45.9137Z" fill="#E8421F"/>
<path fill-rule="evenodd" clip-rule="evenodd" d="M37.2505 34.6361C37.2505 34.6361 38.5991 40.6076 39.0214 47.8482C39.2126 51.1349 39.2588 55.6496 39.263 58.8455C39.5403 58.8455 39.8197 58.8423 40.097 58.8423C41.1201 58.8423 42.1432 58.8518 43.1662 58.8705C43.0402 52.7579 42.4771 39.9686 40.0318 32.3019C37.6518 24.8482 35.8997 24.3813 34.8872 23.7328C33.2843 22.9527 30.3958 22.8242 30.3958 22.8242L30.839 27.6272C30.839 27.6242 35.9837 25.8069 37.2505 34.6361Z" fill="#152A8C"/>
<path fill-rule="evenodd" clip-rule="evenodd" d="M24.6194 59.9157C24.4901 54.7242 24.4943 44.6391 25.8912 34.1588C27.9759 21.4419 29.8147 17.0282 32.2955 11.6484C32.2955 11.6484 26.6312 15.146 23.3811 29.4221C23.3811 29.4221 20.9294 39.3534 19.6306 60.7596C21.2859 60.5681 22.9495 60.06 24.6194 59.9157ZM0.10553 67.8429C0.10553 67.8429 17.9733 61.5466 40 61.5466C40 61.5466 63.8377 61.6204 79.8944 67.8429H0.10553Z" fill="#152A8C"/>
</g>
</g>
<defs>
<clipPath id="clip0_2380_7335">
<rect width="80" height="68" fill="white"/>
</clipPath>
</defs>
</svg>
