<svg width="30" height="32" viewBox="0 0 30 32" fill="none" xmlns="http://www.w3.org/2000/svg">
<path d="M12.7122 2.34163C13.1824 -0.195312 16.8176 -0.195312 17.2878 2.34163C17.6242 4.15639 19.8384 4.87582 21.1773 3.60539C23.0489 1.82939 25.9898 3.96605 24.8791 6.2949C24.0846 7.96081 25.453 9.84431 27.2829 9.60347C29.841 9.26678 30.9643 12.724 28.6969 13.9552C27.0749 14.8359 27.0749 17.1641 28.6969 18.0448C30.9643 19.276 29.841 22.7332 27.2829 22.3965C25.453 22.1557 24.0846 24.0392 24.8791 25.7051C25.9898 28.034 23.0489 30.1706 21.1773 28.3946C19.8384 27.1242 17.6242 27.8436 17.2878 29.6584C16.8176 32.1953 13.1824 32.1953 12.7122 29.6584C12.3758 27.8436 10.1616 27.1242 8.82271 28.3946C6.95107 30.1706 4.01021 28.034 5.12091 25.7051C5.91543 24.0392 4.54699 22.1557 2.7171 22.3965C0.158998 22.7332 -0.964313 19.276 1.30314 18.0448C2.92511 17.1641 2.92511 14.8359 1.30314 13.9552C-0.964312 12.724 0.158996 9.26678 2.7171 9.60347C4.54699 9.84431 5.91543 7.96081 5.12091 6.2949C4.0102 3.96605 6.95106 1.82939 8.82271 3.60539C10.1616 4.87582 12.3758 4.15638 12.7122 2.34163Z" fill="white" fill-opacity="0.5"/>
</svg>
