<svg width="40" height="41" viewBox="0 0 40 41" fill="none" xmlns="http://www.w3.org/2000/svg">
<g clip-path="url(#clip0_1204_21202)">
<path d="M28.119 8.09631C25.426 7.69531 22.636 8.09531 20.015 9.09531C17.385 8.08731 14.584 7.68331 11.881 8.08531C4.07101 9.24731 0.0610061 17.5583 2.92501 25.4363C5.49001 32.4943 12.7 36.4093 19.789 36.3163C27.012 36.5763 34.46 32.6463 37.076 25.4483C39.939 17.5693 35.93 9.25931 28.12 8.09631H28.119Z" fill="#FA3E4D"/>
<path d="M29.708 8.45858L23.983 9.14358L26.918 13.6636L20 10.5876L13.581 13.6636L16.017 9.14358L10.408 8.38558C17.268 6.88458 23.354 6.79758 29.708 8.45858Z" fill="#036D50"/>
<path d="M20 9.42983C19.172 9.42983 18.501 8.75783 18.501 7.93083V4.67183C18.501 3.84483 19.172 3.17383 20 3.17383C20.828 3.17383 21.499 3.84483 21.499 4.67183V7.93083C21.499 8.75783 20.828 9.42983 20 9.42983Z" fill="#036D50"/>
</g>
<defs>
<clipPath id="clip0_1204_21202">
<rect y="0.5" width="40" height="40" rx="20" fill="white"/>
</clipPath>
</defs>
</svg>
