<svg width="25" height="28" viewBox="0 0 25 28" fill="none" xmlns="http://www.w3.org/2000/svg">
<rect width="25" height="28" fill="#4A4A4A"/>
<g id="PickMe_&#236;&#152;&#164;&#235;&#138;&#152;&#236;&#157;&#152;&#237;&#143;&#172;&#236;&#157;&#184;&#237;&#138;&#184;&#235;&#176;&#155;&#234;&#184;&#176; &#236;&#132;&#177;&#234;&#179;&#181;">
<rect x="-296" y="-384" width="393" height="852" rx="20" fill="url(#paint0_linear_1070_16104)"/>
<path id="Star 35" d="M0.125347 4.13225C-0.38261 1.49479 2.56534 -0.429887 4.77565 1.09612L12.7789 6.62154C13.0022 6.77569 13.2453 6.89885 13.5017 6.98763L22.6917 10.1697C25.2298 11.0485 25.4227 14.5639 22.996 15.7151L14.2092 19.8834C13.964 19.9996 13.7358 20.1487 13.5307 20.3263L6.17994 26.6941C4.14982 28.4527 1.00902 26.862 1.22542 24.1848L2.00896 14.4911C2.03082 14.2207 2.01589 13.9485 1.96458 13.6821L0.125347 4.13225Z" fill="white" fill-opacity="0.5"/>
</g>
<defs>
<linearGradient id="paint0_linear_1070_16104" x1="-99" y1="-435.5" x2="-99" y2="240.5" gradientUnits="userSpaceOnUse">
<stop stop-color="#58D848"/>
<stop offset="1" stop-color="white"/>
</linearGradient>
</defs>
</svg>
