<svg width="182" height="182" viewBox="0 0 182 182" fill="none" xmlns="http://www.w3.org/2000/svg">
<g clip-path="url(#clip0_1843_12446)">
<path d="M177.573 74.0089C173.696 72.2026 169.051 73.9589 167.199 77.931L160.952 91.3262L159.145 90.4936L174.056 58.5207C175.867 54.6396 174.192 50.0259 170.316 48.215C166.439 46.4086 161.83 48.0921 160.019 51.9733L145.086 83.9962L143.279 83.1635L160.365 46.5178C162.212 42.5548 160.569 37.8774 156.693 36.071C152.816 34.2647 148.175 36.0119 146.328 39.9749L129.215 76.6707L127.409 75.838L141.291 46.0674C143.138 42.1043 141.496 37.4269 137.619 35.6206C133.743 33.8142 129.102 35.5614 127.254 39.5245C127.254 39.5245 127.254 39.529 127.254 39.5336L111.907 72.4483L110.51 64.1627C110.51 59.6127 106.82 55.9181 102.27 55.9181C97.7203 55.9181 94.0303 59.6082 94.0303 64.1627V100.231C94.0303 109.895 97.7158 119.559 105.091 126.935C119.838 141.681 143.753 141.681 158.499 126.935C163.09 122.344 168.063 112.729 171.262 105.873C171.817 104.685 172.436 103.352 173.014 102.114L173.232 101.65C173.532 101.004 173.81 100.413 174.056 99.8802L181.236 84.4785C183.087 80.5018 181.449 75.8153 177.573 74.0089Z" fill="#FFC84D"/>
<path d="M79.7297 55.9142C75.1797 55.9142 71.4896 59.6043 71.4896 64.1588L70.0928 72.4444L54.7456 39.5297C54.7456 39.5297 54.7456 39.5251 54.7456 39.5206C52.8983 35.5575 48.2573 33.8103 44.3807 35.6167C40.5041 37.423 38.8616 42.1004 40.7089 46.0635L54.5909 75.8341L52.7846 76.6668L35.672 39.971C33.8247 36.008 29.1837 34.2608 25.3071 36.0671C21.4305 37.8735 19.788 42.5509 21.6353 46.5139L38.7205 83.1596L36.9142 83.9923L21.9811 51.9694C20.1702 48.0837 15.561 46.4047 11.6844 48.2111C7.80781 50.0174 6.13341 54.6311 7.94431 58.5168L22.8547 90.4897L21.0483 91.3223L14.8012 77.9271C12.9493 73.9504 8.30376 72.1941 4.42716 74.005C0.550561 75.8159 -1.08744 80.4979 0.764411 84.4746L7.94431 99.8763C8.19456 100.409 8.46756 101 8.76786 101.646L8.98626 102.11C9.56411 103.348 10.1829 104.681 10.738 105.869C13.9367 112.726 18.9098 122.34 23.5008 126.931C38.2473 141.677 62.1621 141.677 76.9087 126.931C84.2842 119.555 87.9697 109.891 87.9697 100.227V64.1588C87.9697 59.6088 84.2797 55.9142 79.7297 55.9142Z" fill="#FFC84D"/>
<path d="M69.2238 88.1016L60.5378 91.2638C53.4353 93.8482 49.7725 101.702 52.3569 108.804L53.6582 112.385C56.7067 103.18 62.0075 94.781 69.2238 88.1016Z" fill="#F78700"/>
<path d="M112.776 88.1016L121.462 91.2638C128.565 93.8482 132.228 101.702 129.643 108.804L128.342 112.385C125.293 103.18 119.993 94.781 112.776 88.1016Z" fill="#F78700"/>
</g>
<defs>
<clipPath id="clip0_1843_12446">
<rect width="182" height="182" fill="white"/>
</clipPath>
</defs>
</svg>
