<svg width="169" height="169" viewBox="0 0 169 169" fill="none" xmlns="http://www.w3.org/2000/svg">
<g clip-path="url(#clip0_1204_19611)">
<path d="M122.222 75.2991L117.738 72.7101C117.055 72.3158 116.181 72.5498 115.787 73.2328L113.198 77.7171C112.804 78.4001 113.038 79.2734 113.721 79.6677L118.205 82.2567C118.888 82.6511 119.761 82.4171 120.156 81.7341L122.745 77.2498C123.139 76.5668 122.905 75.6934 122.222 75.2991Z" fill="#FF8800"/>
<path d="M117.974 42.1678C120.571 42.1678 122.678 40.0617 122.678 37.4638C122.678 34.8658 120.571 32.7598 117.974 32.7598C115.376 32.7598 113.27 34.8658 113.27 37.4638C113.27 40.0617 115.376 42.1678 117.974 42.1678Z" fill="white"/>
<path d="M75.3358 71.6172V72.3042C75.3358 81.0162 69.7408 88.0782 62.8408 88.0782H52.9678V103.219H116.97V88.0782H107.097C100.197 88.0782 94.6018 81.0162 94.6018 72.3042V71.6172H75.3358Z" fill="white"/>
<g filter="url(#filter0_d_1204_19611)">
<path d="M129.421 80.2062L119.506 87.0462C118.474 87.7572 117.112 87.7572 116.08 87.0462L103.075 78.0762C102.043 77.3652 100.681 77.3652 99.649 78.0762L86.6561 87.0432C85.6241 87.7542 84.259 87.7542 83.23 87.0432L70.252 78.0792C69.22 77.3682 67.855 77.3652 66.823 78.0792L53.8391 87.0432C52.8071 87.7542 51.4421 87.7542 50.413 87.0432L40.522 80.2122C38.734 78.9762 36.232 79.9722 35.833 82.1082C34.588 88.8042 34.645 95.9502 36.643 103.402C42.559 125.461 62.863 141.322 85.6991 140.995C112.96 140.605 134.938 118.384 134.938 91.0302C134.938 87.9762 134.644 84.9942 134.104 82.0992C133.708 79.9662 131.206 78.9732 129.418 80.2032L129.421 80.2062Z" fill="#FFC84D"/>
</g>
<path d="M71.8973 105.986C75.2309 105.986 77.9333 103.284 77.9333 99.9501C77.9333 96.6165 75.2309 93.9141 71.8973 93.9141C68.5637 93.9141 65.8613 96.6165 65.8613 99.9501C65.8613 103.284 68.5637 105.986 71.8973 105.986Z" fill="black"/>
<path d="M98.0448 105.986C101.378 105.986 104.081 103.284 104.081 99.9501C104.081 96.6165 101.378 93.9141 98.0448 93.9141C94.7112 93.9141 92.0088 96.6165 92.0088 99.9501C92.0088 103.284 94.7112 105.986 98.0448 105.986Z" fill="black"/>
<path d="M77.879 122.073C76.505 122.073 75.434 120.765 75.797 119.439C76.949 115.245 80.792 112.164 85.352 112.164C89.912 112.164 93.752 115.245 94.907 119.439C95.27 120.765 94.199 122.073 92.825 122.073H77.879Z" fill="#FF6D00"/>
<path d="M111.981 45.066C111.447 45.066 110.94 45.162 110.424 45.222C110.19 39.03 105.132 34.074 98.8798 34.074C97.8538 34.074 96.8788 34.251 95.9308 34.5C91.7848 29.907 85.8028 27 79.1278 27C67.7188 27 58.3078 35.445 56.7328 46.416C50.2018 47.109 45.0928 52.572 45.0928 59.289C45.0928 62.16 46.0528 64.791 47.6278 66.942L52.7218 64.002C53.6578 63.462 54.8548 63.783 55.3948 64.719L58.9438 70.866C59.2048 71.319 59.2558 71.832 59.1418 72.303H111.975C119.496 72.303 125.592 66.207 125.592 58.686C125.592 51.165 119.496 45.069 111.975 45.069L111.981 45.066Z" fill="white"/>
<path d="M58.9507 70.8683L55.4017 64.7213C54.8617 63.7853 53.6647 63.4643 52.7287 64.0043L47.6347 66.9443L46.5817 67.5503C45.6457 68.0903 45.3247 69.2873 45.8647 70.2233L49.4137 76.3703C49.9537 77.3063 51.1507 77.6273 52.0867 77.0873L58.2337 73.5383C58.7167 73.2593 59.0287 72.8033 59.1487 72.2993C59.2627 71.8283 59.2117 71.3153 58.9507 70.8623V70.8683Z" fill="#FFC84D"/>
<g filter="url(#filter1_f_1204_19611)">
<path d="M55 150H117C117 150 108.367 152.224 104 153.228C99.6331 154.233 70.8906 154.282 67.5 153.228C64.1094 152.175 55 150 55 150Z" fill="black" fill-opacity="0.3"/>
</g>
</g>
<defs>
<filter id="filter0_d_1204_19611" x="31" y="77.543" width="107.938" height="71.457" filterUnits="userSpaceOnUse" color-interpolation-filters="sRGB">
<feFlood flood-opacity="0" result="BackgroundImageFix"/>
<feColorMatrix in="SourceAlpha" type="matrix" values="0 0 0 0 0 0 0 0 0 0 0 0 0 0 0 0 0 0 127 0" result="hardAlpha"/>
<feOffset dy="4"/>
<feGaussianBlur stdDeviation="2"/>
<feComposite in2="hardAlpha" operator="out"/>
<feColorMatrix type="matrix" values="0 0 0 0 0 0 0 0 0 0 0 0 0 0 0 0 0 0 0.25 0"/>
<feBlend mode="normal" in2="BackgroundImageFix" result="effect1_dropShadow_1204_19611"/>
<feBlend mode="normal" in="SourceGraphic" in2="effect1_dropShadow_1204_19611" result="shape"/>
</filter>
<filter id="filter1_f_1204_19611" x="51" y="146" width="70" height="12" filterUnits="userSpaceOnUse" color-interpolation-filters="sRGB">
<feFlood flood-opacity="0" result="BackgroundImageFix"/>
<feBlend mode="normal" in="SourceGraphic" in2="BackgroundImageFix" result="shape"/>
<feGaussianBlur stdDeviation="2" result="effect1_foregroundBlur_1204_19611"/>
</filter>
<clipPath id="clip0_1204_19611">
<rect width="169" height="169" fill="white"/>
</clipPath>
</defs>
</svg>
