<svg width="24" height="24" viewBox="0 0 24 24" fill="none" xmlns="http://www.w3.org/2000/svg">
<g clip-path="url(#clip0_515_26055)">
<path d="M11.7041 2.61328C12.8434 1.55804 14.6649 1.81432 15.4678 3.14355L15.5254 3.24023C16.2951 4.51493 17.676 5.29393 19.165 5.29395C20.5556 5.29395 21.6141 6.54226 21.3867 7.91406L21.2686 8.62402C21.0751 9.79099 20.08 10.6564 18.8975 10.6855L18.752 10.6885C15.3264 10.7724 13.3173 14.5778 15.1797 17.4541C15.7323 18.3078 15.6824 19.418 15.0557 20.2188L14.4492 20.9932C13.3244 22.4298 11.0819 22.1848 10.2939 20.5391C9.53054 18.9447 7.89765 17.952 6.13086 18.0078L4.45801 18.0605C2.23163 18.1311 1.15171 15.3648 2.83691 13.9082C4.22244 12.7105 4.71249 10.7755 4.06445 9.0625L4.03223 8.97461C3.46218 7.46768 4.44646 5.82374 6.04395 5.61426L7.16113 5.46777C8.26867 5.32253 9.30354 4.83618 10.123 4.07715L11.7041 2.61328Z" stroke="#ADADAF" stroke-width="2"/>
</g>
<defs>
<clipPath id="clip0_515_26055">
<rect width="24" height="24" fill="white"/>
</clipPath>
</defs>
</svg>
