<svg width="24" height="24" viewBox="0 0 24 24" fill="none" xmlns="http://www.w3.org/2000/svg">
<path d="M12 2C17.5228 2 22 6.47715 22 12C22 17.5228 17.5228 22 12 22C6.47715 22 2 17.5228 2 12C2 6.47715 6.47715 2 12 2ZM15.707 8.29297C15.3165 7.90244 14.6835 7.90244 14.293 8.29297L12 10.5859L9.70703 8.29297C9.31651 7.90244 8.68349 7.90244 8.29297 8.29297C7.90244 8.68349 7.90244 9.31651 8.29297 9.70703L10.5859 12L8.29297 14.293C7.90244 14.6835 7.90244 15.3165 8.29297 15.707C8.6835 16.0975 9.31653 16.0975 9.70703 15.707L12 13.4141L14.293 15.707C14.6835 16.0975 15.3165 16.0975 15.707 15.707C16.0975 15.3165 16.0975 14.6835 15.707 14.293L13.4141 12L15.707 9.70703C16.0975 9.31653 16.0975 8.6835 15.707 8.29297Z" fill="#ADADAF"/>
</svg>
