<svg width="40" height="41" viewBox="0 0 40 41" fill="none" xmlns="http://www.w3.org/2000/svg">
<g clip-path="url(#clip0_1204_21217)">
<path d="M21.792 19.5417C21.662 19.3927 21.541 19.2438 21.418 19.0938C21.415 19.1858 21.407 19.2827 21.401 19.3777C21.534 19.4227 21.662 19.4827 21.792 19.5417Z" fill="#FF9C00"/>
<path d="M34.214 24.7C34.579 26.59 34.03 28.621 32.567 30.084C31.601 31.05 30.384 31.595 29.127 31.764C30.991 31.782 32.625 31.285 33.829 30.207C33.903 30.14 33.987 30.086 34.058 30.015C35.49 28.583 36.012 26.464 35.751 24.043C35.618 24.128 35.481 24.213 35.321 24.293C34.968 24.47 34.595 24.599 34.214 24.7Z" fill="#FF9C00"/>
<path d="M9.681 10.9112C9.724 10.8902 9.758 10.8592 9.802 10.8392C10.119 10.6912 10.445 10.5882 10.773 10.5142C11.518 8.92222 13.265 5.77422 15.22 6.34322C15.433 6.40522 15.622 6.51022 15.8 6.63122C16.298 6.14622 16.889 5.81722 17.516 5.63822C15.015 5.32722 12.821 5.83722 11.352 7.30622C11.281 7.37722 11.226 7.46122 11.16 7.53522C10.346 8.44322 9.864 9.59822 9.682 10.9102L9.681 10.9112Z" fill="#FF9C00"/>
<path d="M38.264 15.936C37.008 13.895 32.927 13.974 32.927 13.974C32.927 13.974 34.065 12.287 31.711 10.56C30.697 9.816 29.509 9.831 28.485 10.086C29.276 10.224 30.035 10.573 30.646 11.184C32.237 12.775 32.237 15.354 30.646 16.945C30.59 17.001 30.525 17.039 30.467 17.091C31.666 18.728 32.409 20.343 32.629 21.678C33.467 22.544 34.001 23.595 34.214 24.7C34.595 24.599 34.968 24.469 35.321 24.292C35.481 24.212 35.618 24.127 35.751 24.042C38.233 22.448 36.264 19.977 36.264 19.977C36.264 19.977 39.52 17.975 38.264 15.934V15.936Z" fill="#036D50"/>
<path d="M16.091 13.1293C16.565 14.1453 16.644 15.2423 16.397 16.2533C17.084 16.6163 17.668 17.1843 18.021 17.9423C18.244 18.4213 18.349 18.9233 18.359 19.4203C19.339 19.0613 20.415 19.0443 21.401 19.3793C21.407 19.2843 21.415 19.1873 21.418 19.0953C21.452 18.0743 21.322 17.2043 21.087 16.4653C20.52 16.5673 19.939 16.5413 19.385 16.3273C17.55 15.6183 16.732 13.3103 17.559 11.1713C17.573 11.1353 17.591 11.0993 17.606 11.0633C17.46 9.5713 17.031 7.4693 15.8 6.6313C15.622 6.5103 15.433 6.4053 15.22 6.3433C13.265 5.7743 11.518 8.9223 10.773 10.5143C12.895 10.0393 15.134 11.0773 16.091 13.1283V13.1293Z" fill="#036D50"/>
<path d="M19.385 16.3281C19.939 16.5421 20.52 16.5681 21.087 16.4661C22.399 16.2301 23.627 15.2331 24.204 13.7401C25.03 11.6021 24.551 8.41714 22.716 7.70814C20.912 7.01114 18.474 8.96614 17.606 11.0641C17.591 11.1001 17.573 11.1361 17.559 11.1721C16.733 13.3101 17.551 15.6191 19.385 16.3281ZM18.77 11.6401C19.209 10.5051 20.485 9.94014 21.62 10.3791C22.755 10.8171 23.32 12.0941 22.881 13.2291C22.442 14.3641 21.166 14.9291 20.031 14.4901C18.896 14.0511 18.331 12.7751 18.769 11.6401H18.77Z" fill="#FFFEFA"/>
<path d="M24.086 21.6022C24.058 21.6302 24.041 21.6632 24.014 21.6912C24.223 22.1282 24.358 22.5912 24.423 23.0632C24.743 23.0982 25.061 23.1592 25.373 23.2472C25.429 23.1832 25.473 23.1112 25.534 23.0502C27.077 21.5082 29.578 21.5082 31.12 23.0502C32.662 24.5922 32.662 27.0932 31.12 28.6362C30.668 29.0882 30.13 29.3912 29.561 29.5782C29.469 30.3352 29.23 31.0692 28.842 31.7502C28.937 31.7532 29.034 31.7622 29.128 31.7632C30.385 31.5942 31.602 31.0502 32.568 30.0832C34.031 28.6202 34.58 26.5892 34.215 24.6992C34.002 23.5952 33.468 22.5432 32.63 21.6772C32.607 21.6532 32.592 21.6252 32.569 21.6022C30.227 19.2602 26.43 19.2602 24.088 21.6022H24.086Z" fill="#D12030"/>
<path d="M29.561 29.579C30.129 29.392 30.668 29.089 31.12 28.637C32.662 27.095 32.662 24.594 31.12 23.051C29.577 21.509 27.076 21.509 25.534 23.051C25.473 23.112 25.43 23.184 25.373 23.248C26.305 23.509 27.185 24.005 27.918 24.738C29.24 26.06 29.772 27.857 29.561 29.579Z" fill="#F56570"/>
<path d="M32.57 21.5991C32.59 21.6291 32.61 21.6591 32.63 21.6791C32.41 20.3391 31.67 18.7291 30.47 17.0891C30.52 17.0391 30.59 16.9991 30.65 16.9491C32.24 15.3491 32.24 12.7691 30.65 11.1791C30.04 10.5691 29.28 10.2191 28.49 10.0891C28.35 10.0591 28.22 10.0291 28.09 10.0191C28.75 8.52914 28.47 6.72914 27.25 5.49914C25.66 3.90914 23.08 3.90914 21.49 5.49914C21.28 5.71914 21.1 5.94914 20.94 6.18914C19.92 5.48914 18.66 5.30914 17.52 5.63914C16.89 5.81914 16.3 6.14914 15.8 6.62914C17.03 7.46914 17.46 9.56914 17.61 11.0691C18.47 8.96914 20.91 7.00914 22.72 7.70914C24.55 8.41914 25.03 11.5991 24.2 13.7391C23.63 15.2291 22.4 16.2291 21.09 16.4691C21.32 17.2091 21.45 18.0791 21.42 19.0991C21.54 19.2491 21.66 19.3991 21.79 19.5391C21.66 19.4891 21.53 19.4291 21.4 19.3791C20.42 19.0391 19.34 19.0591 18.36 19.4191C18.35 18.9191 18.24 18.4191 18.02 17.9391C17.67 17.1791 17.08 16.6191 16.4 16.2491C16.64 15.2391 16.57 14.1491 16.09 13.1291C15.13 11.0791 12.9 10.0391 10.77 10.5191C10.45 10.5891 10.12 10.6891 9.8 10.8391C9.76 10.8591 9.72 10.8891 9.68 10.9091C9.12 14.9791 11.48 20.5891 16.13 25.2391C16.3 25.4091 16.48 25.5691 16.66 25.7391C20.61 29.4791 25.15 31.6091 28.84 31.7491C29.23 31.0691 29.47 30.3391 29.56 29.5791C29.77 27.8591 29.24 26.0591 27.92 24.7391C27.18 24.0091 26.3 23.5091 25.37 23.2491C25.06 23.1591 24.74 23.0991 24.42 23.0591C24.36 22.5891 24.22 22.1291 24.01 21.6891C24.04 21.6591 24.06 21.6291 24.09 21.5991C26.43 19.2591 30.23 19.2591 32.57 21.5991ZM27.68 16.4891L27.92 16.0191C28.1 15.6691 28.52 15.5391 28.87 15.7091L29.34 15.9591C29.69 16.1291 29.82 16.5591 29.64 16.9091L29.4 17.3691C29.23 17.7191 28.8 17.8591 28.45 17.6791L27.98 17.4391C27.64 17.2591 27.5 16.8391 27.68 16.4891ZM22.83 20.3491C22.46 20.4791 22.06 20.2791 21.93 19.9091L21.81 19.5491L21.76 19.4091C21.63 19.0391 21.83 18.6391 22.19 18.5191L22.69 18.3391C23.06 18.2191 23.46 18.4091 23.59 18.7791L23.76 19.2791C23.89 19.6491 23.7 20.0491 23.33 20.1791L22.96 20.2991L22.83 20.3491Z" fill="#23B169"/>
<path d="M20.031 14.4903C21.166 14.9293 22.442 14.3643 22.881 13.2293C23.32 12.0943 22.755 10.8173 21.62 10.3793C20.485 9.94032 19.209 10.5053 18.77 11.6403C18.331 12.7753 18.895 14.0513 20.031 14.4903Z" fill="#FFD900"/>
<path d="M27.9189 16.0217L27.6787 16.4908C27.501 16.8378 27.6382 17.2632 27.9853 17.441L28.4543 17.6812C28.8014 17.8589 29.2268 17.7217 29.4045 17.3746L29.6448 16.9056C29.8225 16.5585 29.6852 16.1331 29.3382 15.9554L28.8691 15.7151C28.5221 15.5374 28.0967 15.6746 27.9189 16.0217Z" fill="#FFD900"/>
<path d="M21.931 19.9119C22.059 20.2799 22.46 20.4759 22.829 20.3479L22.958 20.3029L23.327 20.1749C23.695 20.0469 23.891 19.6449 23.763 19.2769L23.59 18.7779C23.462 18.4099 23.061 18.2139 22.692 18.3419L22.193 18.5149C21.825 18.6419 21.629 19.0439 21.757 19.4129L21.804 19.5499L21.929 19.9119H21.931Z" fill="#FFD900"/>
<path d="M29.128 31.7647C29.034 31.7647 28.937 31.7557 28.842 31.7517C25.147 31.6137 20.606 29.4837 16.661 25.7397C16.484 25.5717 16.303 25.4117 16.129 25.2377C11.48 20.5887 9.116 14.9827 9.681 10.9117C9.863 9.5997 10.345 8.4447 11.159 7.5367C11.177 7.4957 11.188 7.4707 11.188 7.4707L8.278 10.3807C2.008 16.6517 2.008 26.8177 8.278 33.0877C14.548 39.3577 24.715 39.3577 30.985 33.0877L33.895 30.1777C33.895 30.1777 33.87 30.1897 33.829 30.2067C32.625 31.2847 30.991 31.7817 29.127 31.7637L29.128 31.7647Z" fill="#FFC450"/>
</g>
<defs>
<clipPath id="clip0_1204_21217">
<rect y="0.5" width="40" height="40" rx="20" fill="white"/>
</clipPath>
</defs>
</svg>
