<svg width="120" height="129" viewBox="0 0 120 129" fill="none" xmlns="http://www.w3.org/2000/svg">
<g clip-path="url(#clip0_1204_19611)" filter="url(#filter0_d_1204_19611)">
<path d="M97.2532 51.2991L92.7689 48.7101C92.0859 48.3158 91.2126 48.5498 90.8182 49.2328L88.2292 53.7171C87.8349 54.4001 88.0689 55.2734 88.7519 55.6677L93.2362 58.2567C93.9192 58.6511 94.7925 58.4171 95.1869 57.7341L97.7759 53.2498C98.1702 52.5668 97.9362 51.6934 97.2532 51.2991Z" fill="#FF8800"/>
<path d="M93.0048 18.1678C95.6027 18.1678 97.7088 16.0617 97.7088 13.4638C97.7088 10.8658 95.6027 8.75977 93.0048 8.75977C90.4068 8.75977 88.3008 10.8658 88.3008 13.4638C88.3008 16.0617 90.4068 18.1678 93.0048 18.1678Z" fill="white"/>
<path d="M50.367 47.6172V48.3042C50.367 57.0162 44.772 64.0782 37.872 64.0782H27.999V79.2192H92.001V64.0782H82.128C75.228 64.0782 69.633 57.0162 69.633 48.3042V47.6172H50.367Z" fill="white"/>
<path d="M104.452 56.2062L94.5373 63.0462C93.5053 63.7572 92.1433 63.7572 91.1113 63.0462L78.1063 54.0762C77.0743 53.3652 75.7123 53.3652 74.6803 54.0762L61.6873 63.0432C60.6553 63.7542 59.2903 63.7542 58.2613 63.0432L45.2833 54.0792C44.2513 53.3682 42.8863 53.3652 41.8543 54.0792L28.8703 63.0432C27.8383 63.7542 26.4733 63.7542 25.4443 63.0432L15.5533 56.2122C13.7653 54.9762 11.2633 55.9722 10.8643 58.1082C9.6193 64.8042 9.6763 71.9502 11.6743 79.4022C17.5903 101.461 37.8943 117.322 60.7303 116.995C87.9913 116.605 109.969 94.3842 109.969 67.0302C109.969 63.9762 109.675 60.9942 109.135 58.0992C108.739 55.9662 106.237 54.9732 104.449 56.2032L104.452 56.2062Z" fill="#FFC84D"/>
<path d="M46.9286 81.9861C50.2622 81.9861 52.9646 79.2837 52.9646 75.9501C52.9646 72.6165 50.2622 69.9141 46.9286 69.9141C43.595 69.9141 40.8926 72.6165 40.8926 75.9501C40.8926 79.2837 43.595 81.9861 46.9286 81.9861Z" fill="black"/>
<path d="M73.076 81.9861C76.4096 81.9861 79.112 79.2837 79.112 75.9501C79.112 72.6165 76.4096 69.9141 73.076 69.9141C69.7424 69.9141 67.04 72.6165 67.04 75.9501C67.04 79.2837 69.7424 81.9861 73.076 81.9861Z" fill="black"/>
<path d="M52.9102 98.0731C51.5362 98.0731 50.4652 96.7651 50.8282 95.4391C51.9802 91.2451 55.8232 88.1641 60.3832 88.1641C64.9432 88.1641 68.7832 91.2451 69.9382 95.4391C70.3012 96.7651 69.2302 98.0731 67.8562 98.0731H52.9102Z" fill="#FF6D00"/>
<path d="M87.012 21.066C86.478 21.066 85.971 21.162 85.455 21.222C85.221 15.03 80.163 10.074 73.911 10.074C72.885 10.074 71.91 10.251 70.962 10.5C66.816 5.907 60.834 3 54.159 3C42.75 3 33.339 11.445 31.764 22.416C25.233 23.109 20.124 28.572 20.124 35.289C20.124 38.16 21.084 40.791 22.659 42.942L27.753 40.002C28.689 39.462 29.886 39.783 30.426 40.719L33.975 46.866C34.236 47.319 34.287 47.832 34.173 48.303H87.006C94.527 48.303 100.623 42.207 100.623 34.686C100.623 27.165 94.527 21.069 87.006 21.069L87.012 21.066Z" fill="white"/>
<path d="M33.9819 46.8683L30.4329 40.7213C29.8929 39.7853 28.6959 39.4643 27.7599 40.0043L22.6659 42.9443L21.6129 43.5503C20.6769 44.0903 20.3559 45.2873 20.8959 46.2233L24.4449 52.3703C24.9849 53.3063 26.1819 53.6273 27.1179 53.0873L33.2649 49.5383C33.7479 49.2593 34.0599 48.8033 34.1799 48.2993C34.2939 47.8283 34.2429 47.3153 33.9819 46.8623V46.8683Z" fill="#FFC84D"/>
<g filter="url(#filter1_f_1204_19611)">
<path d="M96.5708 26.2635C99.5883 29.6005 100.651 39.5794 98.4993 41.5007C96.3472 43.422 97.0172 32.8375 93.9997 29.5005C90.9822 26.1635 85.0913 24.9027 87.2434 22.9814C89.3322 22.2496 93.5533 22.9265 96.5708 26.2635Z" fill="white"/>
</g>
<g filter="url(#filter2_i_1204_19611)">
<path d="M44.0002 5.99902C55.0002 1.99902 63.9955 4.67497 65.5003 7.13641C67.0052 9.59784 52.9303 5.95828 47 9.63592C41.0696 13.3136 36.0045 23.0974 34.4997 20.6359C34.5497 18.2044 39.0002 10.499 44.0002 5.99902Z" fill="white"/>
</g>
</g>
<defs>
<filter id="filter0_d_1204_19611" x="-4" y="0" width="128" height="132" filterUnits="userSpaceOnUse" color-interpolation-filters="sRGB">
<feFlood flood-opacity="0" result="BackgroundImageFix"/>
<feColorMatrix in="SourceAlpha" type="matrix" values="0 0 0 0 0 0 0 0 0 0 0 0 0 0 0 0 0 0 127 0" result="hardAlpha"/>
<feOffset dy="8"/>
<feGaussianBlur stdDeviation="2"/>
<feComposite in2="hardAlpha" operator="out"/>
<feColorMatrix type="matrix" values="0 0 0 0 0 0 0 0 0 0 0 0 0 0 0 0 0 0 0.25 0"/>
<feBlend mode="normal" in2="BackgroundImageFix" result="effect1_dropShadow_1204_19611"/>
<feBlend mode="normal" in="SourceGraphic" in2="effect1_dropShadow_1204_19611" result="shape"/>
</filter>
<filter id="filter1_f_1204_19611" x="84.781" y="20.7148" width="16.8513" height="23.0176" filterUnits="userSpaceOnUse" color-interpolation-filters="sRGB">
<feFlood flood-opacity="0" result="BackgroundImageFix"/>
<feBlend mode="normal" in="SourceGraphic" in2="BackgroundImageFix" result="shape"/>
<feGaussianBlur stdDeviation="1" result="effect1_foregroundBlur_1204_19611"/>
</filter>
<filter id="filter2_i_1204_19611" x="34.4996" y="3.95117" width="31.1125" height="21.0762" filterUnits="userSpaceOnUse" color-interpolation-filters="sRGB">
<feFlood flood-opacity="0" result="BackgroundImageFix"/>
<feBlend mode="normal" in="SourceGraphic" in2="BackgroundImageFix" result="shape"/>
<feColorMatrix in="SourceAlpha" type="matrix" values="0 0 0 0 0 0 0 0 0 0 0 0 0 0 0 0 0 0 127 0" result="hardAlpha"/>
<feOffset dy="4"/>
<feGaussianBlur stdDeviation="5"/>
<feComposite in2="hardAlpha" operator="arithmetic" k2="-1" k3="1"/>
<feColorMatrix type="matrix" values="0 0 0 0 0.975 0 0 0 0 0.975 0 0 0 0 0.975 0 0 0 1 0"/>
<feBlend mode="plus-lighter" in2="shape" result="effect1_innerShadow_1204_19611"/>
</filter>
<clipPath id="clip0_1204_19611">
<rect width="120" height="120" fill="white"/>
</clipPath>
</defs>
</svg>
